<?xml version="1.0" encoding="utf-8"?>
<!-- Generator: Adobe Illustrator 24.1.0, SVG Export Plug-In . SVG Version: 6.00 Build 0)  -->
<svg version="1.1" id="Layer_1" xmlns="http://www.w3.org/2000/svg" xmlns:xlink="http://www.w3.org/1999/xlink" x="0px" y="0px"
	 viewBox="0 0 82.4 114.9" style="enable-background:new 0 0 82.4 114.9;" xml:space="preserve">
<style type="text/css">
	.st0{fill:#FFFFFF;}
	.st1{fill:#C0392B;}
	.st2{fill:#2C3E50;}
</style>
<path class="st0" d="M8.5,0C3.8,0,0,4,0,8.9V106c0,4.9,3.8,8.9,8.5,8.9h65.4c4.7,0,8.5-4,8.5-8.9V8.9C82.4,4,78.6,0,73.9,0H8.5z"/>
<polygon class="st1" points="13.2,16.1 15.3,18.8 11.5,23.7 7.8,18.8 9.8,16.1 11.5,18.3 "/>
<path class="st2" d="M11.5,6.5h0.2l3.2,7.9h-1.7l-0.3-0.8h-2.5L10,14.4H8.3L11.5,6.5z M12.2,12.1l-0.7-2l-0.7,2H12.2z"/>
<polygon class="st1" points="69.1,98.8 67.1,96.1 70.8,91.1 74.6,96.1 72.5,98.8 70.8,96.5 "/>
<path class="st2" d="M70.9,108.4h-0.2l-3.2-7.9h1.7l0.3,0.8h2.5l0.3-0.8h1.7L70.9,108.4z M70.1,102.7l0.7,2l0.7-2H70.1z"/>
<polygon class="st1" points="50.4,36.8 61.4,51.3 41.2,78.1 21,51.3 32,36.8 41.2,48.9 "/>
</svg>
