<?xml version="1.0" encoding="utf-8"?>
<!-- Generator: Adobe Illustrator 24.1.0, SVG Export Plug-In . SVG Version: 6.00 Build 0)  -->
<svg version="1.1" id="Layer_1" xmlns="http://www.w3.org/2000/svg" xmlns:xlink="http://www.w3.org/1999/xlink" x="0px" y="0px"
	 viewBox="0 0 82.4 114.9" style="enable-background:new 0 0 82.4 114.9;" xml:space="preserve">
<style type="text/css">
	.st0{fill:#FFFFFF;}
	.st1{fill:#2C3E50;}
</style>
<path class="st0" d="M8.5,0C3.8,0,0,4,0,8.9V106c0,4.9,3.8,8.9,8.5,8.9h65.4c4.7,0,8.5-4,8.5-8.9V8.9C82.4,4,78.6,0,73.9,0H8.5z"/>
<path class="st1" d="M13.4,22.7c-0.7,0-1.3-0.4-1.6-0.9c0,0,0,0-0.1,0l0.5,1.9h-1.5l0.5-1.9c0,0,0,0-0.1,0c-0.3,0.6-0.9,0.9-1.6,0.9
	c-1,0-1.8-0.8-1.8-1.8c0-1,0.8-1.8,1.8-1.8c0.2,0,0.4,0,0.6,0.1c-0.4-0.3-0.6-0.8-0.6-1.3c0-1,0.8-1.8,1.8-1.8c1,0,1.8,0.8,1.8,1.8
	c0,0.5-0.2,1-0.6,1.3c0.2-0.1,0.4-0.1,0.6-0.1c1,0,1.8,0.8,1.8,1.8C15.2,21.9,14.4,22.7,13.4,22.7z"/>
<path class="st1" d="M69,92.2c0.7,0,1.3,0.4,1.6,0.9c0,0,0,0,0.1,0l-0.5-1.9h1.5L71,93.1c0,0,0,0,0.1,0c0.3-0.6,0.9-0.9,1.6-0.9
	c1,0,1.8,0.8,1.8,1.8c0,1-0.8,1.8-1.8,1.8c-0.2,0-0.4,0-0.6-0.1c0.4,0.3,0.6,0.8,0.6,1.3c0,1-0.8,1.8-1.8,1.8c-1,0-1.8-0.8-1.8-1.8
	c0-0.5,0.2-1,0.6-1.3c-0.2,0.1-0.4,0.1-0.6,0.1c-1,0-1.8-0.8-1.8-1.8C67.2,93,68,92.2,69,92.2z"/>
<path class="st1" d="M11.5,14.3c-5.1,0-5.1-7.7,0-7.7c3.8,0,4.8,4.2,2.9,6.4l1,1.3h-1.7l-0.4-0.4C12.9,14.1,12.2,14.3,11.5,14.3z
	 M12.9,11l0.5,0.7c0.8-1.4,0.1-3.6-1.9-3.6c-3,0-3,4.6,0,4.6c0.3,0,0.6-0.1,0.9-0.1L11.1,11H12.9z"/>
<path class="st1" d="M70.9,100.6c5.1,0,5.1,7.7,0,7.7c-3.8,0-4.8-4.2-2.9-6.4l-1-1.3h1.7L69,101C69.5,100.7,70.1,100.6,70.9,100.6z
	 M69.5,103.8l-0.5-0.7c-0.8,1.4-0.1,3.6,1.9,3.6c3,0,3-4.6,0-4.6c-0.3,0-0.6,0.1-0.9,0.1l1.3,1.6H69.5z"/>
<path class="st1" d="M38.2,72.6c0,0.1,0.1,0.2,0.2,0.3c0.4,0.4,2,1.6,2.8,1.6c0.8,0,2.3-1.2,2.8-1.6c0.1-0.1,0.1-0.2,0.2-0.3
	c0.3-1.6-1.9,0.5-2.9,0.5C40.1,73.1,37.9,71,38.2,72.6z"/>
<path class="st1" d="M41.1,77.9c-1.8-0.5-2.3-0.5-3.8-0.1c0.3,0.8,1.6,2.7,3.8,2.7c2.2,0,3.6-1.9,3.8-2.7
	C43.4,77.4,42.9,77.3,41.1,77.9z"/>
<path class="st1" d="M38.6,64c-0.2,0.1-0.5,0.1-0.7,0.2c0-0.4-1.2-2.2-2.8-2.4c-0.2,0-0.3,0-0.5,0c-1.9,0-2.9,1.6-2.9,1.6l-0.2,0.3
	c-0.4-0.3-0.6-0.4-0.9-0.6c-0.5,0.4-0.8,0.9-0.6,1.5c0.4,1,2.4,1.6,4.2,1.6c2,0,3.7-0.7,4.7-1.8c0.1-0.1,0.1-0.2,0-0.3
	C38.9,64.1,38.7,64,38.6,64z M34.9,64.6c-1,0-1.8-0.2-2.8-0.7l0.2-0.1c0.3-0.2,1.2-0.9,2.3-0.9c0.1,0,0.2,0,0.3,0
	c1,0.2,1.9,1,2.2,1.4C36.4,64.4,35.6,64.6,34.9,64.6z"/>
<path class="st1" d="M51.6,63.1c-0.3,0.2-0.5,0.3-0.9,0.6l-0.2-0.3c0-0.1-1-1.6-2.9-1.6c-0.2,0-0.3,0-0.5,0
	c-1.6,0.2-2.8,1.9-2.8,2.4c-0.2-0.1-0.5-0.1-0.7-0.2c-0.1,0-0.2,0-0.3,0.1c-0.1,0.1-0.1,0.2,0,0.3c0.9,1.1,2.6,1.8,4.7,1.8
	c1.8,0,3.8-0.5,4.2-1.6C52.4,64,52,63.5,51.6,63.1z M47.3,64.6c-0.7,0-1.5-0.1-2.3-0.3c0.3-0.4,1.2-1.3,2.2-1.4c0.1,0,0.2,0,0.3,0
	c1.1,0,2.1,0.7,2.3,0.9l0.2,0.1C49.2,64.3,48.3,64.6,47.3,64.6z"/>
<path class="st1" d="M64,32.6c-1.6,0-3.1,1.2-3.3,2.8c-0.2,1.1,0.4,2.1,1.3,2.5c-2.5,3.7-3.5,5.1-5.1,4.4c-1.2-0.6-1.4-1.4-1.2-7.1
	c1.6-0.1,3-1.4,3.2-2.9c0.2-1.6-1-2.9-2.8-2.9c-1.7,0-3.3,1.3-3.4,2.9c-0.1,1.3,0.7,2.4,1.8,2.7c-1,1.9-1.8,3.3-2.4,4.4
	c-2.4-1.4-5.2-2.3-8-2.7c-0.5-1-1-2.3-1.7-3.8c1.2-0.5,2-1.5,2-2.8c0-1.7-1.4-3.1-3.3-3.1c-1.9,0-3.3,1.4-3.3,3.1
	c0,1.3,0.9,2.3,2,2.8c-0.7,1.5-1.2,2.8-1.7,3.8c-2.8,0.3-5.6,1.2-8,2.7c-0.7-1.1-1.4-2.5-2.4-4.4c1.1-0.4,1.9-1.5,1.8-2.7
	c-0.1-1.6-1.6-2.9-3.4-2.9c-1.7,0-3,1.3-2.8,2.9c0.2,1.5,1.6,2.8,3.2,2.9c0.3,5.7,0,6.5-1.2,7.1c-1.6,0.7-2.5-0.6-5.1-4.4
	c0.9-0.4,1.5-1.4,1.3-2.5c-0.2-1.5-1.7-2.8-3.3-2.8c-1.6,0-2.7,1.2-2.4,2.8c0.3,1.5,1.8,2.8,3.3,2.8c0.4,2.2,0.7,4.5,1.1,6.7
	c-0.4,0-0.8,0-1.3,0c0.4,2.1,0.7,4.2,1.1,6.2c0.4,0,0.8,0,1.2,0c0,0,0,0.1,0,0.1c-1.6,7,0.2,16,3.9,21.5c1.8,5,2.5,6.5,4.7,8.7
	c4.5,4.3,9.7,6.3,11,6.4c1.4-0.1,6.5-2.1,11-6.4c2.2-2.2,2.9-3.8,4.7-8.7c3.7-5.5,5.5-14.6,3.9-21.5c0,0,0-0.1,0-0.1
	c0.4,0,0.8,0,1.2,0c0.4-2.1,0.7-4.2,1.1-6.2c-0.4,0-0.8,0-1.3,0c0.4-2.2,0.7-4.5,1.1-6.7c1.5,0,3-1.2,3.3-2.8
	C66.7,33.8,65.6,32.6,64,32.6z M24,49.6c-0.9,0-1.7-0.8-1.9-1.7c-0.2-1,0.5-1.7,1.4-1.7c0.9,0,1.7,0.8,1.9,1.7
	C25.5,48.9,24.8,49.6,24,49.6z M51.5,45.5c1.3,0,2.2,1.1,2,2.4c-0.1,1.3-1.2,2.4-2.4,2.4c-1.2,0-2.1-1.1-2-2.4
	C49.1,46.6,50.2,45.5,51.5,45.5z M41.2,45.2c1.4,0,2.5,1.2,2.5,2.7c0,1.5-1.2,2.7-2.5,2.7c-1.3,0-2.5-1.2-2.5-2.7
	C38.7,46.4,39.8,45.2,41.2,45.2z M30.9,45.5c1.3,0,2.3,1.1,2.4,2.4c0.1,1.3-0.8,2.4-2,2.4c-1.2,0-2.3-1.1-2.4-2.4
	C28.7,46.6,29.7,45.5,30.9,45.5z M51.9,78.2c-4.4,5.3-10,6.8-10.7,6.8s-6.3-1.6-10.7-6.8c-1.8-4.6-2.5-7.7-2.4-11.7
	c0-2.5,0.3-6.7,1.3-11.8c8.8,1,15.3,2.2,24.6,6C54.7,67.3,54.3,72,51.9,78.2z M60.3,47.9c-0.2,1-1,1.7-1.9,1.7
	c-0.9,0-1.5-0.8-1.4-1.7c0.1-1,1-1.7,1.9-1.7C59.8,46.2,60.4,46.9,60.3,47.9z"/>
</svg>
