<?xml version="1.0" encoding="utf-8"?>
<!-- Generator: Adobe Illustrator 24.1.0, SVG Export Plug-In . SVG Version: 6.00 Build 0)  -->
<svg version="1.1" id="Layer_1" xmlns="http://www.w3.org/2000/svg" xmlns:xlink="http://www.w3.org/1999/xlink" x="0px" y="0px"
	 viewBox="0 0 82.4 114.9" style="enable-background:new 0 0 82.4 114.9;" xml:space="preserve">
<style type="text/css">
	.st0{fill:#FFFFFF;}
	.st1{fill:#C0392B;}
	.st2{fill:#2C3E50;}
</style>
<path class="st0" d="M8.5,0C3.8,0,0,4,0,8.9V106c0,4.9,3.8,8.9,8.5,8.9h65.4c4.7,0,8.5-4,8.5-8.9V8.9C82.4,4,78.6,0,73.9,0H8.5z"/>
<polygon class="st1" points="13.2,16.1 15.3,18.8 11.5,23.7 7.8,18.8 9.8,16.1 11.5,18.3 "/>
<polygon class="st1" points="69.1,98.8 67.1,96.1 70.8,91.1 74.6,96.1 72.5,98.8 70.8,96.5 "/>
<path class="st2" d="M9.7,12.7h1.5c0.4,0,0.8-0.3,0.8-0.8V6.6h1.5V12c0,1.6-0.8,2.3-2.3,2.3H9.7V12.7z"/>
<path class="st2" d="M72.7,102.1h-1.5c-0.4,0-0.8,0.3-0.8,0.8v5.3h-1.5v-5.3c0-1.6,0.8-2.3,2.3-2.3h1.5V102.1z"/>
<path class="st1" d="M33.8,59.1c0.3-0.5,0.8-0.8,1.3-0.8c0.5,0,1,0.3,1.3,0.8h0.9c0.2-0.4,0.3-0.8,0.3-1.3c0-1.4-1.1-2.3-2.5-2.3
	c-1.4,0-2.5,0.9-2.5,2.3c0,0.4,0.1,0.9,0.3,1.3H33.8z"/>
<path class="st1" d="M41,66.7c1.2,0,2.9-1.4,3.1-2.1c0.3-0.9-0.7-0.6-0.9-0.6C42.7,64.4,41.9,65,41,65c-0.9,0-1.7-0.6-2.2-0.9
	c-0.2,0-1.2-0.3-0.9,0.6C38.1,65.3,39.8,66.7,41,66.7z"/>
<path class="st1" d="M45.5,59.1c0.3-0.5,0.8-0.8,1.3-0.8c0.5,0,1,0.3,1.3,0.8H49c0.2-0.4,0.3-0.8,0.3-1.3c0-1.4-1.1-2.3-2.5-2.3
	c-1.4,0-2.5,0.9-2.5,2.3c0,0.4,0.1,0.9,0.3,1.3H45.5z"/>
<path class="st1" d="M50.3,68.7c-0.4,0.5-0.8,0.8-1.4,1.1c-2.1,1-4.7-1.4-5.6-1.2c-1.8,0.5-1.8,1.7-1.4,2.1c0.3,0.3,0.7,0.6,1.2,0.8
	c-0.5,0.2-1.1,0.4-2.1,0.4c-1,0-1.6-0.2-2.1-0.4c0.5-0.2,0.9-0.4,1.2-0.8c0.4-0.4,0.4-1.6-1.4-2.1c-0.8-0.2-3.4,2.2-5.6,1.2
	c-0.6-0.3-1.1-0.6-1.4-1.1c-0.1-0.2-0.3-0.2-0.5-0.1c-0.2,0.1-0.2,0.3-0.2,0.5c0.4,0.8,0.9,1.4,1.4,1.8c0.9,0.6,2.3,0.9,3.7,1
	c0.7,0.7,3.2,1.5,5,1.5s4.3-0.9,5-1.5c1.4-0.1,2.8-0.4,3.7-1c0.5-0.3,1-0.9,1.4-1.8c0.1-0.2,0-0.4-0.2-0.5
	C50.7,68.5,50.5,68.6,50.3,68.7z"/>
<path class="st1" d="M60.6,51.5C60.6,51.5,60.6,51.5,60.6,51.5l4.1-10.1l-10.1-6l-4.7,9.3l0.8-12H31.4l0.8,12l-4.7-9.3l-10.1,6
	l4.1,10.1c0,0,0,0,0,0c-0.8,1-6.8,11.8-5.2,14.4c0.8,1.3,2,2.4,3.3,3.1c1.2,0.8,2.1,0.9,3.6,0.6c0.3-0.1,0.6-0.2,1-0.4
	c1.4,6.4,10.6,12.8,16.9,12.9c6.3-0.1,15.5-6.5,16.9-12.9c0.3,0.2,0.6,0.3,1,0.4c1.5,0.3,2.3,0.1,3.6-0.6c1.2-0.8,2.5-1.8,3.3-3.1
	C67.3,63.3,61.4,52.5,60.6,51.5z M51.2,73.4c-4,3.2-8.6,4.9-10.2,5c-1.6-0.1-6.2-1.8-10.2-5c-4.7-3.8-4.4-16-3.4-22
	c0-1.9,27.2-1.9,27.2,0C55.6,57.4,55.9,69.6,51.2,73.4z"/>
</svg>
