<?xml version="1.0" encoding="utf-8"?>
<!-- Generator: Adobe Illustrator 24.1.0, SVG Export Plug-In . SVG Version: 6.00 Build 0)  -->
<svg version="1.1" id="Layer_1" xmlns="http://www.w3.org/2000/svg" xmlns:xlink="http://www.w3.org/1999/xlink" x="0px" y="0px"
	 viewBox="0 0 82.4 114.9" style="enable-background:new 0 0 82.4 114.9;" xml:space="preserve">
<style type="text/css">
	.st0{fill:#FFFFFF;}
	.st1{fill:#C0392B;}
	.st2{fill:#2C3E50;}
</style>
<path class="st0" d="M8.5,0C3.8,0,0,4,0,8.9V106c0,4.9,3.8,8.9,8.5,8.9h65.4c4.7,0,8.5-4,8.5-8.9V8.9C82.4,4,78.6,0,73.9,0H8.5z"/>
<polygon class="st1" points="13.2,16.1 15.3,18.8 11.5,23.7 7.8,18.8 9.8,16.1 11.5,18.3 "/>
<polygon class="st1" points="44.6,25.9 48.7,31.3 41.2,41.3 33.7,31.3 37.8,25.9 41.2,30.4 "/>
<polygon class="st1" points="30.3,14.4 34.4,19.8 26.9,29.8 19.4,19.8 23.5,14.4 26.9,18.9 "/>
<polygon class="st1" points="58.9,14.4 63,19.8 55.5,29.8 47.9,19.8 52,14.4 55.5,18.9 "/>
<polygon class="st1" points="30.3,37.4 34.4,42.8 26.9,52.8 19.4,42.8 23.5,37.4 26.9,41.9 "/>
<polygon class="st1" points="58.9,37.4 63,42.8 55.5,52.8 47.9,42.8 52,37.4 55.5,41.9 "/>
<polygon class="st1" points="37.8,89 33.7,83.5 41.2,73.6 48.7,83.5 44.6,89 41.2,84.4 "/>
<polygon class="st1" points="52,100.5 47.9,95 55.5,85.1 63,95 58.9,100.5 55.5,95.9 "/>
<polygon class="st1" points="23.5,100.5 19.4,95 26.9,85.1 34.4,95 30.3,100.5 26.9,95.9 "/>
<polygon class="st1" points="52,77.5 47.9,72 55.5,62.1 63,72 58.9,77.5 55.5,72.9 "/>
<polygon class="st1" points="23.5,77.5 19.4,72 26.9,62.1 34.4,72 30.3,77.5 26.9,72.9 "/>
<polygon class="st1" points="69.1,98.8 67.1,96.1 70.8,91.1 74.6,96.1 72.5,98.8 70.8,96.5 "/>
<path class="st2" d="M6.8,6.6h2.8v7.6H8.1V8.2H6.8V6.6z"/>
<path class="st2" d="M11,10.4c0-2.2,0.7-3.9,2.6-3.9c1.9,0,2.6,1.7,2.6,3.9s-0.7,3.9-2.6,3.9C11.8,14.3,11,12.6,11,10.4z M14.8,10.4
	c0-1.4-0.3-2.5-1.1-2.5c-0.8,0-1.1,1.1-1.1,2.5c0,1.4,0.3,2.5,1.1,2.5C14.5,12.9,14.8,11.8,14.8,10.4z"/>
<path class="st2" d="M75.5,108.2h-2.8v-7.6h1.5v6.1h1.2V108.2z"/>
<path class="st2" d="M71.3,104.4c0,2.2-0.7,3.9-2.6,3.9c-1.9,0-2.6-1.7-2.6-3.9c0-2.2,0.7-3.9,2.6-3.9
	C70.6,100.5,71.3,102.3,71.3,104.4z M67.6,104.4c0,1.4,0.3,2.5,1.1,2.5c0.8,0,1.1-1.1,1.1-2.5c0-1.4-0.3-2.5-1.1-2.5
	C67.9,101.9,67.6,103,67.6,104.4z"/>
</svg>
