<?xml version="1.0" encoding="utf-8"?>
<!-- Generator: Adobe Illustrator 24.1.0, SVG Export Plug-In . SVG Version: 6.00 Build 0)  -->
<svg version="1.1" id="Layer_1" xmlns="http://www.w3.org/2000/svg" xmlns:xlink="http://www.w3.org/1999/xlink" x="0px" y="0px"
	 viewBox="0 0 82.4 114.9" style="enable-background:new 0 0 82.4 114.9;" xml:space="preserve">
<style type="text/css">
	.st0{fill:#FFFFFF;}
	.st1{fill:#C0392B;}
	.st2{fill:#2C3E50;}
</style>
<path class="st0" d="M8.5,0C3.8,0,0,4,0,8.9V106c0,4.9,3.8,8.9,8.5,8.9h65.4c4.7,0,8.5-4,8.5-8.9V8.9C82.4,4,78.6,0,73.9,0H8.5z"/>
<polygon class="st1" points="11.6,23.6 11.5,23.6 11.5,23.6 7.8,19.9 11.5,16.2 15.3,19.9 "/>
<polygon class="st1" points="27,29.7 26.9,29.8 26.8,29.7 19.1,22 26.9,14.2 34.7,22 "/>
<polygon class="st1" points="55.5,29.7 55.5,29.8 55.4,29.7 47.7,22 55.5,14.2 63.2,22 "/>
<polygon class="st1" points="41.3,41.2 41.2,41.3 41.1,41.2 33.4,33.5 41.2,25.7 49,33.5 "/>
<polygon class="st1" points="27,52.8 26.9,52.9 26.8,52.8 19.1,45.1 26.9,37.3 34.7,45.1 "/>
<polygon class="st1" points="55.5,52.8 55.5,52.9 55.4,52.8 47.7,45.1 55.5,37.3 63.2,45.1 "/>
<polygon class="st1" points="55.4,85.2 55.5,85.1 55.5,85.2 63.2,92.9 55.5,100.7 47.7,92.9 "/>
<polygon class="st1" points="26.8,85.2 26.9,85.1 27,85.2 34.7,92.9 26.9,100.7 19.1,92.9 "/>
<polygon class="st1" points="41.1,73.7 41.2,73.6 41.3,73.7 49,81.4 41.2,89.2 33.4,81.4 "/>
<polygon class="st1" points="55.4,62.1 55.5,62.1 55.5,62.1 63.2,69.8 55.5,77.6 47.7,69.8 "/>
<polygon class="st1" points="26.8,62.1 26.9,62.1 27,62.1 34.7,69.8 26.9,77.6 19.1,69.8 "/>
<polygon class="st1" points="70.9,98.7 70.8,98.7 70.8,98.7 67.1,95 70.8,91.2 74.6,95 "/>
<path class="st2" d="M6.9,6.6h2.8v7.6H8.1V8.2H6.9V6.6z"/>
<path class="st2" d="M11,10.4c0-2.2,0.7-3.9,2.6-3.9c1.9,0,2.6,1.7,2.6,3.9s-0.7,3.9-2.6,3.9C11.8,14.3,11,12.6,11,10.4z M14.8,10.4
	c0-1.4-0.3-2.5-1.1-2.5c-0.8,0-1.1,1.1-1.1,2.5c0,1.4,0.3,2.5,1.1,2.5C14.5,12.9,14.8,11.8,14.8,10.4z"/>
<path class="st2" d="M75.5,108.2h-2.8v-7.6h1.5v6.1h1.2V108.2z"/>
<path class="st2" d="M71.3,104.4c0,2.2-0.7,3.9-2.6,3.9c-1.9,0-2.6-1.7-2.6-3.9c0-2.2,0.7-3.9,2.6-3.9
	C70.6,100.5,71.3,102.3,71.3,104.4z M67.6,104.4c0,1.4,0.3,2.5,1.1,2.5c0.8,0,1.1-1.1,1.1-2.5c0-1.4-0.3-2.5-1.1-2.5
	C67.9,101.9,67.6,103,67.6,104.4z"/>
</svg>
