<?xml version="1.0" encoding="utf-8"?>
<!-- Generator: Adobe Illustrator 24.1.0, SVG Export Plug-In . SVG Version: 6.00 Build 0)  -->
<svg version="1.1" id="Layer_1" xmlns="http://www.w3.org/2000/svg" xmlns:xlink="http://www.w3.org/1999/xlink" x="0px" y="0px"
	 viewBox="0 0 82.4 114.9" style="enable-background:new 0 0 82.4 114.9;" xml:space="preserve">
<style type="text/css">
	.st0{fill:#FFFFFF;}
	.st1{fill:#2C3E50;}
</style>
<path class="st0" d="M8.5,0C3.8,0,0,4,0,8.9V106c0,4.9,3.8,8.9,8.5,8.9h65.4c4.7,0,8.5-4,8.5-8.9V8.9C82.4,4,78.6,0,73.9,0H8.5z"/>
<path class="st1" d="M13.4,22.7c-0.7,0-1.3-0.4-1.6-0.9c0,0,0,0-0.1,0l0.5,1.9h-1.5l0.5-1.9c0,0,0,0-0.1,0c-0.3,0.6-0.9,0.9-1.6,0.9
	c-1,0-1.8-0.8-1.8-1.8c0-1,0.8-1.8,1.8-1.8c0.2,0,0.4,0,0.6,0.1c-0.4-0.3-0.6-0.8-0.6-1.3c0-1,0.8-1.8,1.8-1.8c1,0,1.8,0.8,1.8,1.8
	c0,0.5-0.2,1-0.6,1.3c0.2-0.1,0.4-0.1,0.6-0.1c1,0,1.8,0.8,1.8,1.8C15.2,21.9,14.4,22.7,13.4,22.7z"/>
<path class="st1" d="M69,92.2c0.7,0,1.3,0.4,1.6,0.9c0,0,0,0,0.1,0l-0.5-1.9h1.5L71,93.1c0,0,0,0,0.1,0c0.3-0.6,0.9-0.9,1.6-0.9
	c1,0,1.8,0.8,1.8,1.8c0,1-0.8,1.8-1.8,1.8c-0.2,0-0.4,0-0.6-0.1c0.4,0.3,0.6,0.8,0.6,1.3c0,1-0.8,1.8-1.8,1.8c-1,0-1.8-0.8-1.8-1.8
	c0-0.5,0.2-1,0.6-1.3c-0.2,0.1-0.4,0.1-0.6,0.1c-1,0-1.8-0.8-1.8-1.8C67.2,93,68,92.2,69,92.2z"/>
<path class="st1" d="M11.5,6.5h0.2l3.2,7.9h-1.7l-0.3-0.8h-2.5L10,14.4H8.3L11.5,6.5z M12.2,12.1l-0.7-2l-0.7,2H12.2z"/>
<path class="st1" d="M70.9,108.4h-0.2l-3.2-7.9h1.7l0.3,0.8h2.5l0.3-0.8h1.7L70.9,108.4z M70.1,102.7l0.7,2l0.7-2H70.1z"/>
<path class="st1" d="M51.1,72.6c-3.7,0-6.8-2-8.5-5c-0.1,0-0.2,0-0.4,0.1l2.9,10.4h-8l2.9-10.4c-0.1,0-0.2,0-0.4-0.1
	c-1.7,3-4.9,5-8.5,5c-5.4,0-9.8-4.4-9.8-9.8s4.4-9.8,9.8-9.8c1.1,0,2.2,0.2,3.3,0.6c-1.9-1.8-3.1-4.3-3.1-7.1c0-5.4,4.4-9.8,9.8-9.8
	c5.4,0,9.8,4.3,9.8,9.8c0,2.8-1.2,5.3-3.1,7.1c1-0.4,2.1-0.6,3.3-0.6c5.4,0,9.8,4.4,9.8,9.8S56.5,72.6,51.1,72.6z"/>
</svg>
