<?xml version="1.0" encoding="utf-8"?>
<!-- Generator: Adobe Illustrator 24.1.0, SVG Export Plug-In . SVG Version: 6.00 Build 0)  -->
<svg version="1.1" id="Layer_1" xmlns="http://www.w3.org/2000/svg" xmlns:xlink="http://www.w3.org/1999/xlink" x="0px" y="0px"
	 viewBox="0 0 82.4 114.9" style="enable-background:new 0 0 82.4 114.9;" xml:space="preserve">
<style type="text/css">
	.st0{fill:#FFFFFF;}
	.st1{fill:#2C3E50;}
</style>
<path class="st0" d="M8.5,0C3.8,0,0,4,0,8.9V106c0,4.9,3.8,8.9,8.5,8.9h65.4c4.7,0,8.5-4,8.5-8.9V8.9C82.4,4,78.6,0,73.9,0H8.5z"/>
<polygon class="st1" points="7.8,21.2 11.5,16.1 15.3,21.2 13.2,22.7 11.6,21.4 12.3,23.7 10.8,23.7 11.5,21.4 9.8,22.7 "/>
<polygon class="st1" points="74.6,93.6 70.8,98.8 67.1,93.6 69.1,92.1 70.7,93.4 70.1,91.1 71.6,91.1 70.9,93.4 72.5,92.1 "/>
<path class="st1" d="M6.9,6.6h2.8v7.6H8.1V8.2H6.9V6.6z"/>
<path class="st1" d="M11,10.4c0-2.2,0.7-3.9,2.6-3.9c1.9,0,2.6,1.7,2.6,3.9s-0.7,3.9-2.6,3.9C11.8,14.3,11,12.6,11,10.4z M14.8,10.4
	c0-1.4-0.3-2.5-1.1-2.5c-0.8,0-1.1,1.1-1.1,2.5c0,1.4,0.3,2.5,1.1,2.5C14.5,12.9,14.8,11.8,14.8,10.4z"/>
<path class="st1" d="M75.5,108.2h-2.8v-7.6h1.5v6.1h1.2V108.2z"/>
<path class="st1" d="M71.4,104.4c0,2.2-0.7,3.9-2.6,3.9c-1.9,0-2.6-1.7-2.6-3.9c0-2.2,0.7-3.9,2.6-3.9
	C70.6,100.5,71.4,102.3,71.4,104.4z M67.6,104.4c0,1.4,0.3,2.5,1.1,2.5c0.8,0,1.1-1.1,1.1-2.5c0-1.4-0.3-2.5-1.1-2.5
	C67.9,101.9,67.6,103,67.6,104.4z"/>
<polygon class="st1" points="19.3,24.7 26.9,14.2 34.5,24.7 30.4,27.8 27.1,25.1 28.4,29.7 25.4,29.7 26.7,25.1 23.5,27.8 "/>
<polygon class="st1" points="47.9,24.7 55.5,14.2 63,24.7 58.9,27.8 55.6,25.1 56.9,29.7 54,29.7 55.3,25.1 52,27.8 "/>
<polygon class="st1" points="33.6,36.3 41.2,25.9 48.8,36.3 44.6,39.4 41.4,36.7 42.7,41.3 39.7,41.3 41,36.7 37.7,39.4 "/>
<polygon class="st1" points="19.3,47.8 26.9,37.4 34.5,47.8 30.4,50.9 27.1,48.2 28.4,52.8 25.4,52.8 26.7,48.2 23.5,50.9 "/>
<polygon class="st1" points="47.9,47.8 55.5,37.4 63,47.8 58.9,50.9 55.6,48.2 56.9,52.8 54,52.8 55.3,48.2 52,50.9 "/>
<polygon class="st1" points="63,90.1 55.5,100.6 47.9,90.1 52,87 55.3,89.7 54,85.1 56.9,85.1 55.6,89.7 58.9,87 "/>
<polygon class="st1" points="34.5,90.1 26.9,100.6 19.3,90.1 23.5,87 26.7,89.7 25.4,85.1 28.4,85.1 27.1,89.7 30.4,87 "/>
<polygon class="st1" points="48.8,78.5 41.2,88.9 33.6,78.5 37.7,75.4 41,78.1 39.7,73.5 42.7,73.5 41.4,78.1 44.6,75.4 "/>
<polygon class="st1" points="63,67 55.5,77.4 47.9,67 52,63.9 55.3,66.6 54,62 56.9,62 55.6,66.6 58.9,63.9 "/>
<polygon class="st1" points="34.5,67 26.9,77.4 19.3,67 23.5,63.9 26.7,66.6 25.4,62 28.4,62 27.1,66.6 30.4,63.9 "/>
</svg>
