<?xml version="1.0" encoding="utf-8"?>
<!-- Generator: Adobe Illustrator 24.1.0, SVG Export Plug-In . SVG Version: 6.00 Build 0)  -->
<svg version="1.1" id="Layer_1" xmlns="http://www.w3.org/2000/svg" xmlns:xlink="http://www.w3.org/1999/xlink" x="0px" y="0px"
	 viewBox="0 0 82.4 114.9" style="enable-background:new 0 0 82.4 114.9;" xml:space="preserve">
<style type="text/css">
	.st0{fill:#FFFFFF;}
	.st1{fill:#C0392B;}
	.st2{fill:#2C3E50;}
</style>
<path class="st0" d="M8.5,0C3.8,0,0,4,0,8.9V106c0,4.9,3.8,8.9,8.5,8.9h65.4c4.7,0,8.5-4,8.5-8.9V8.9C82.4,4,78.6,0,73.9,0H8.5z"/>
<polygon class="st1" points="13.2,16.1 15.3,18.8 11.5,23.7 7.8,18.8 9.8,16.1 11.5,18.3 "/>
<polygon class="st1" points="69.1,98.8 67.1,96.1 70.8,91.1 74.6,96.1 72.5,98.8 70.8,96.5 "/>
<path class="st2" d="M9.3,8.9c0-1.2,0.8-2.3,2.3-2.3c1.8,0,2.7,1.8,2,3.4l-1.8,4.2h-1.6l1.3-3.2C10.2,11.1,9.3,10.3,9.3,8.9z
	 M12.3,8.9c0-1-1.5-1-1.5,0C10.8,9.9,12.3,9.9,12.3,8.9z"/>
<path class="st2" d="M73.1,106c0,1.2-0.8,2.3-2.3,2.3c-1.8,0-2.7-1.8-2-3.4l1.8-4.2h1.6l-1.3,3.2C72.2,103.8,73.1,104.6,73.1,106z
	 M70,105.9c0,1,1.5,1,1.5,0C71.6,104.9,70,104.9,70,105.9z"/>
<polygon class="st1" points="30.3,14.4 34.4,19.8 26.9,29.8 19.4,19.8 23.5,14.4 26.9,18.9 "/>
<polygon class="st1" points="58.9,14.4 63,19.8 55.5,29.8 47.9,19.8 52,14.4 55.5,18.9 "/>
<polygon class="st1" points="44.6,49.7 48.7,55.2 41.2,65.1 33.7,55.2 37.8,49.7 41.2,54.3 "/>
<polygon class="st1" points="30.3,37.4 34.4,42.8 26.9,52.8 19.4,42.8 23.5,37.4 26.9,41.9 "/>
<polygon class="st1" points="58.9,37.4 63,42.8 55.5,52.8 47.9,42.8 52,37.4 55.5,41.9 "/>
<polygon class="st1" points="52,100.4 47.9,95 55.5,85 63,95 58.9,100.4 55.5,95.9 "/>
<polygon class="st1" points="23.5,100.4 19.4,95 26.9,85 34.4,95 30.3,100.4 26.9,95.9 "/>
<polygon class="st1" points="52,77.4 47.9,72 55.5,62 63,72 58.9,77.4 55.5,72.9 "/>
<polygon class="st1" points="23.5,77.4 19.4,72 26.9,62 34.4,72 30.3,77.4 26.9,72.9 "/>
</svg>
