<?xml version="1.0" encoding="utf-8"?>
<!-- Generator: Adobe Illustrator 24.1.0, SVG Export Plug-In . SVG Version: 6.00 Build 0)  -->
<svg version="1.1" id="Layer_1" xmlns="http://www.w3.org/2000/svg" xmlns:xlink="http://www.w3.org/1999/xlink" x="0px" y="0px"
	 viewBox="0 0 82.4 114.9" style="enable-background:new 0 0 82.4 114.9;" xml:space="preserve">
<style type="text/css">
	.st0{fill:#FFFFFF;}
	.st1{fill:#C0392B;}
	.st2{fill:#2C3E50;}
</style>
<path class="st0" d="M8.5,0C3.8,0,0,4,0,8.9V106c0,4.9,3.8,8.9,8.5,8.9h65.4c4.7,0,8.5-4,8.5-8.9V8.9C82.4,4,78.6,0,73.9,0H8.5z"/>
<polygon class="st1" points="11.6,23.6 11.5,23.6 11.5,23.6 7.8,19.9 11.5,16.2 15.3,19.9 "/>
<polygon class="st1" points="70.9,98.7 70.8,98.7 70.8,98.7 67.1,95 70.8,91.2 74.6,95 "/>
<path class="st2" d="M9.3,8.9c0-1.2,0.8-2.3,2.3-2.3c1.8,0,2.7,1.8,2,3.4l-1.8,4.2h-1.6l1.3-3.2C10.2,11.1,9.3,10.3,9.3,8.9z
	 M12.3,8.9c0-1-1.5-1-1.5,0C10.8,9.9,12.3,9.9,12.3,8.9z"/>
<path class="st2" d="M73.1,106c0,1.2-0.8,2.3-2.3,2.3c-1.8,0-2.7-1.8-2-3.4l1.8-4.2h1.6l-1.3,3.2C72.2,103.8,73.1,104.6,73.1,106z
	 M70,105.9c0,1,1.5,1,1.5,0C71.6,104.9,70,104.9,70,105.9z"/>
<polygon class="st1" points="27,29.7 26.9,29.8 26.8,29.7 19.1,22 26.9,14.2 34.7,22 "/>
<polygon class="st1" points="55.5,29.7 55.5,29.8 55.4,29.7 47.7,22 55.5,14.2 63.2,22 "/>
<polygon class="st1" points="41.3,65.1 41.2,65.2 41.1,65.1 33.4,57.4 41.2,49.7 49,57.4 "/>
<polygon class="st1" points="27,52.8 26.9,52.8 26.8,52.8 19.1,45.1 26.9,37.3 34.7,45.1 "/>
<polygon class="st1" points="55.5,52.8 55.5,52.8 55.4,52.8 47.7,45.1 55.5,37.3 63.2,45.1 "/>
<polygon class="st1" points="55.4,85.2 55.5,85.1 55.5,85.2 63.2,92.9 55.5,100.7 47.7,92.9 "/>
<polygon class="st1" points="26.8,85.2 26.9,85.1 27,85.2 34.7,92.9 26.9,100.7 19.1,92.9 "/>
<polygon class="st1" points="55.4,62.1 55.5,62 55.5,62.1 63.2,69.8 55.5,77.6 47.7,69.8 "/>
<polygon class="st1" points="26.8,62.1 26.9,62 27,62.1 34.7,69.8 26.9,77.6 19.1,69.8 "/>
</svg>
