<?xml version="1.0" encoding="utf-8"?>
<!-- Generator: Adobe Illustrator 24.1.0, SVG Export Plug-In . SVG Version: 6.00 Build 0)  -->
<svg version="1.1" id="Layer_1" xmlns="http://www.w3.org/2000/svg" xmlns:xlink="http://www.w3.org/1999/xlink" x="0px" y="0px"
	 viewBox="0 0 82.4 114.9" style="enable-background:new 0 0 82.4 114.9;" xml:space="preserve">
<style type="text/css">
	.st0{fill:#FFFFFF;}
	.st1{fill:#2C3E50;}
</style>
<path class="st0" d="M8.5,0C3.8,0,0,4,0,8.9V106c0,4.9,3.8,8.9,8.5,8.9h65.4c4.7,0,8.5-4,8.5-8.9V8.9C82.4,4,78.6,0,73.9,0H8.5z"/>
<path class="st1" d="M13.4,22.7c-0.7,0-1.3-0.4-1.6-0.9c0,0,0,0-0.1,0l0.5,1.9h-1.5l0.5-1.9c0,0,0,0-0.1,0c-0.3,0.6-0.9,0.9-1.6,0.9
	c-1,0-1.8-0.8-1.8-1.8c0-1,0.8-1.8,1.8-1.8c0.2,0,0.4,0,0.6,0.1c-0.4-0.3-0.6-0.8-0.6-1.3c0-1,0.8-1.8,1.8-1.8c1,0,1.8,0.8,1.8,1.8
	c0,0.5-0.2,1-0.6,1.3c0.2-0.1,0.4-0.1,0.6-0.1c1,0,1.8,0.8,1.8,1.8C15.2,21.9,14.4,22.7,13.4,22.7z"/>
<path class="st1" d="M69,92.2c0.7,0,1.3,0.4,1.6,0.9c0,0,0,0,0.1,0l-0.5-1.9h1.5L71,93.1c0,0,0,0,0.1,0c0.3-0.6,0.9-0.9,1.6-0.9
	c1,0,1.8,0.8,1.8,1.8c0,1-0.8,1.8-1.8,1.8c-0.2,0-0.4,0-0.6-0.1c0.4,0.3,0.6,0.8,0.6,1.3c0,1-0.8,1.8-1.8,1.8c-1,0-1.8-0.8-1.8-1.8
	c0-0.5,0.2-1,0.6-1.3c-0.2,0.1-0.4,0.1-0.6,0.1c-1,0-1.8-0.8-1.8-1.8C67.2,93,68,92.2,69,92.2z"/>
<path class="st1" d="M13.1,10.4c0.5,0.4,0.7,0.9,0.7,1.6c0,1.5-1,2.3-2.3,2.3c-1.3,0-2.3-0.8-2.3-2.3c0-0.6,0.2-1.2,0.7-1.6
	c-0.5-0.4-0.7-0.9-0.7-1.6c0-1.5,1.1-2.3,2.3-2.3c1.1,0,2.3,0.8,2.3,2.3C13.8,9.5,13.6,10.1,13.1,10.4z M12.4,12
	c0-0.5-0.4-0.8-0.8-0.8c-0.5,0-0.8,0.4-0.8,0.8c0,0.4,0.4,0.8,0.8,0.8C12,12.8,12.4,12.4,12.4,12z M12.4,8.9c0-0.5-0.4-0.8-0.8-0.8
	c-0.4,0-0.8,0.3-0.8,0.8c0,0.5,0.4,0.8,0.8,0.8C12,9.7,12.4,9.4,12.4,8.9z"/>
<path class="st1" d="M69.3,104.4c-0.5-0.4-0.7-0.9-0.7-1.6c0-1.5,1-2.3,2.3-2.3c1.3,0,2.3,0.8,2.3,2.3c0,0.6-0.2,1.2-0.7,1.6
	c0.5,0.4,0.7,0.9,0.7,1.6c0,1.5-1.1,2.3-2.3,2.3c-1.1,0-2.3-0.8-2.3-2.3C68.5,105.4,68.8,104.8,69.3,104.4z M70,102.9
	c0,0.5,0.4,0.8,0.8,0.8s0.8-0.4,0.8-0.8c0-0.4-0.4-0.8-0.8-0.8S70,102.4,70,102.9z M70,106c0,0.5,0.4,0.8,0.8,0.8
	c0.4,0,0.8-0.3,0.8-0.8c0-0.5-0.4-0.8-0.8-0.8C70.4,105.2,70,105.4,70,106z"/>
<path class="st1" d="M30.6,27.7c-1.4,0-2.5-0.7-3.2-1.9c0,0-0.1,0-0.1,0l1.1,3.9h-2.9l1.1-3.9c0,0-0.1,0-0.1,0
	c-0.6,1.1-1.8,1.9-3.2,1.9c-2,0-3.6-1.6-3.6-3.6s1.6-3.6,3.6-3.6c0.4,0,0.8,0.1,1.2,0.2C23.7,20,23.3,19,23.3,18
	c0-2,1.6-3.6,3.6-3.6c2,0,3.6,1.6,3.6,3.6c0,1-0.4,2-1.2,2.6c0.4-0.1,0.8-0.2,1.2-0.2c2,0,3.6,1.6,3.6,3.6S32.6,27.7,30.6,27.7z"/>
<path class="st1" d="M59.1,27.7c-1.4,0-2.5-0.7-3.2-1.9c0,0-0.1,0-0.1,0l1.1,3.9H54l1.1-3.9c0,0-0.1,0-0.1,0
	c-0.6,1.1-1.8,1.9-3.2,1.9c-2,0-3.6-1.6-3.6-3.6s1.6-3.6,3.6-3.6c0.4,0,0.8,0.1,1.2,0.2C52.3,20,51.8,19,51.8,18
	c0-2,1.6-3.6,3.6-3.6c2,0,3.6,1.6,3.6,3.6c0,1-0.4,2-1.2,2.6c0.4-0.1,0.8-0.2,1.2-0.2c2,0,3.6,1.6,3.6,3.6S61.1,27.7,59.1,27.7z"/>
<path class="st1" d="M30.6,50.7c-1.4,0-2.5-0.7-3.2-1.9c0,0-0.1,0-0.1,0l1.1,3.9h-2.9l1.1-3.9c0,0-0.1,0-0.1,0
	c-0.6,1.1-1.8,1.9-3.2,1.9c-2,0-3.6-1.6-3.6-3.6c0-2,1.6-3.6,3.6-3.6c0.4,0,0.8,0.1,1.2,0.2c-0.7-0.7-1.2-1.6-1.2-2.6
	c0-2,1.6-3.6,3.6-3.6c2,0,3.6,1.6,3.6,3.6c0,1-0.4,2-1.2,2.6c0.4-0.1,0.8-0.2,1.2-0.2c2,0,3.6,1.6,3.6,3.6
	C34.2,49.1,32.6,50.7,30.6,50.7z"/>
<path class="st1" d="M59.1,50.7c-1.4,0-2.5-0.7-3.2-1.9c0,0-0.1,0-0.1,0l1.1,3.9H54l1.1-3.9c0,0-0.1,0-0.1,0
	c-0.6,1.1-1.8,1.9-3.2,1.9c-2,0-3.6-1.6-3.6-3.6c0-2,1.6-3.6,3.6-3.6c0.4,0,0.8,0.1,1.2,0.2c-0.7-0.7-1.2-1.6-1.2-2.6
	c0-2,1.6-3.6,3.6-3.6c2,0,3.6,1.6,3.6,3.6c0,1-0.4,2-1.2,2.6c0.4-0.1,0.8-0.2,1.2-0.2c2,0,3.6,1.6,3.6,3.6
	C62.8,49.1,61.1,50.7,59.1,50.7z"/>
<path class="st1" d="M51.8,87.1c1.4,0,2.5,0.7,3.2,1.9c0,0,0.1,0,0.1,0L54,85.1h2.9l-1.1,3.9c0,0,0.1,0,0.1,0
	c0.6-1.1,1.8-1.9,3.2-1.9c2,0,3.6,1.6,3.6,3.6s-1.6,3.6-3.6,3.6c-0.4,0-0.8-0.1-1.2-0.2c0.7,0.7,1.2,1.6,1.2,2.6
	c0,2-1.6,3.6-3.6,3.6c-2,0-3.6-1.6-3.6-3.6c0-1,0.4-2,1.2-2.6c-0.4,0.1-0.8,0.2-1.2,0.2c-2,0-3.6-1.6-3.6-3.6S49.8,87.1,51.8,87.1z"
	/>
<path class="st1" d="M23.2,87.1c1.4,0,2.5,0.7,3.2,1.9c0,0,0.1,0,0.1,0l-1.1-3.9h2.9l-1.1,3.9c0,0,0.1,0,0.1,0
	c0.6-1.1,1.8-1.9,3.2-1.9c2,0,3.6,1.6,3.6,3.6s-1.6,3.6-3.6,3.6c-0.4,0-0.8-0.1-1.2-0.2c0.7,0.7,1.2,1.6,1.2,2.6
	c0,2-1.6,3.6-3.6,3.6c-2,0-3.6-1.6-3.6-3.6c0-1,0.4-2,1.2-2.6c-0.4,0.1-0.8,0.2-1.2,0.2c-2,0-3.6-1.6-3.6-3.6S21.2,87.1,23.2,87.1z"
	/>
<path class="st1" d="M51.8,64.1c1.4,0,2.5,0.7,3.2,1.9c0,0,0.1,0,0.1,0L54,62h2.9l-1.1,3.9c0,0,0.1,0,0.1,0c0.6-1.1,1.8-1.9,3.2-1.9
	c2,0,3.6,1.6,3.6,3.6c0,2-1.6,3.6-3.6,3.6c-0.4,0-0.8-0.1-1.2-0.2c0.7,0.7,1.2,1.6,1.2,2.6c0,2-1.6,3.6-3.6,3.6
	c-2,0-3.6-1.6-3.6-3.6c0-1,0.4-2,1.2-2.6c-0.4,0.1-0.8,0.2-1.2,0.2c-2,0-3.6-1.6-3.6-3.6C48.2,65.7,49.8,64.1,51.8,64.1z"/>
<path class="st1" d="M23.2,64.1c1.4,0,2.5,0.7,3.2,1.9c0,0,0.1,0,0.1,0L25.4,62h2.9l-1.1,3.9c0,0,0.1,0,0.1,0
	c0.6-1.1,1.8-1.9,3.2-1.9c2,0,3.6,1.6,3.6,3.6c0,2-1.6,3.6-3.6,3.6c-0.4,0-0.8-0.1-1.2-0.2c0.7,0.7,1.2,1.6,1.2,2.6
	c0,2-1.6,3.6-3.6,3.6c-2,0-3.6-1.6-3.6-3.6c0-1,0.4-2,1.2-2.6c-0.4,0.1-0.8,0.2-1.2,0.2c-2,0-3.6-1.6-3.6-3.6
	C19.6,65.7,21.2,64.1,23.2,64.1z"/>
</svg>
