<?xml version="1.0" encoding="utf-8"?>
<!-- Generator: Adobe Illustrator 24.1.0, SVG Export Plug-In . SVG Version: 6.00 Build 0)  -->
<svg version="1.1" id="Layer_1" xmlns="http://www.w3.org/2000/svg" xmlns:xlink="http://www.w3.org/1999/xlink" x="0px" y="0px"
	 viewBox="0 0 82.4 114.9" style="enable-background:new 0 0 82.4 114.9;" xml:space="preserve">
<style type="text/css">
	.st0{fill:#FFFFFF;}
	.st1{fill:#C0392B;}
	.st2{fill:#2C3E50;}
</style>
<path class="st0" d="M8.5,0C3.8,0,0,4,0,8.9V106c0,4.9,3.8,8.9,8.5,8.9h65.4c4.7,0,8.5-4,8.5-8.9V8.9C82.4,4,78.6,0,73.9,0H8.5z"/>
<polygon class="st1" points="11.6,23.6 11.5,23.6 11.5,23.6 7.8,19.9 11.5,16.2 15.3,19.9 "/>
<polygon class="st1" points="70.9,98.7 70.8,98.7 70.8,98.7 67.1,95 70.8,91.2 74.6,95 "/>
<path class="st2" d="M13.1,10.4c0.5,0.4,0.7,0.9,0.7,1.6c0,1.5-1,2.3-2.3,2.3c-1.3,0-2.3-0.8-2.3-2.3c0-0.6,0.2-1.2,0.7-1.6
	c-0.5-0.4-0.7-0.9-0.7-1.6c0-1.5,1.1-2.3,2.3-2.3c1.1,0,2.3,0.8,2.3,2.3C13.8,9.5,13.6,10.1,13.1,10.4z M12.4,12
	c0-0.5-0.4-0.8-0.8-0.8c-0.5,0-0.8,0.4-0.8,0.8c0,0.4,0.4,0.8,0.8,0.8C12,12.8,12.4,12.4,12.4,12z M12.4,8.9c0-0.5-0.4-0.8-0.8-0.8
	c-0.4,0-0.8,0.3-0.8,0.8c0,0.5,0.4,0.8,0.8,0.8C12,9.7,12.4,9.4,12.4,8.9z"/>
<path class="st2" d="M69.3,104.4c-0.5-0.4-0.7-0.9-0.7-1.6c0-1.5,1-2.3,2.3-2.3c1.3,0,2.3,0.8,2.3,2.3c0,0.6-0.2,1.2-0.7,1.6
	c0.5,0.4,0.7,0.9,0.7,1.6c0,1.5-1.1,2.3-2.3,2.3c-1.1,0-2.3-0.8-2.3-2.3C68.5,105.4,68.8,104.8,69.3,104.4z M70,102.9
	c0,0.5,0.4,0.8,0.8,0.8s0.8-0.4,0.8-0.8c0-0.4-0.4-0.8-0.8-0.8S70,102.4,70,102.9z M70,106c0,0.5,0.4,0.8,0.8,0.8
	c0.4,0,0.8-0.3,0.8-0.8c0-0.5-0.4-0.8-0.8-0.8C70.4,105.2,70,105.4,70,106z"/>
<polygon class="st1" points="27,29.7 26.9,29.8 26.8,29.7 19.1,22 26.9,14.2 34.7,22 "/>
<polygon class="st1" points="55.5,29.7 55.5,29.8 55.4,29.7 47.7,22 55.5,14.2 63.2,22 "/>
<polygon class="st1" points="27,52.8 26.9,52.8 26.8,52.8 19.1,45.1 26.9,37.3 34.7,45.1 "/>
<polygon class="st1" points="55.5,52.8 55.5,52.8 55.4,52.8 47.7,45.1 55.5,37.3 63.2,45.1 "/>
<polygon class="st1" points="55.4,85.2 55.5,85.1 55.5,85.2 63.2,92.9 55.5,100.7 47.7,92.9 "/>
<polygon class="st1" points="26.8,85.2 26.9,85.1 27,85.2 34.7,92.9 26.9,100.7 19.1,92.9 "/>
<polygon class="st1" points="55.4,62.1 55.5,62 55.5,62.1 63.2,69.8 55.5,77.6 47.7,69.8 "/>
<polygon class="st1" points="26.8,62.1 26.9,62 27,62.1 34.7,69.8 26.9,77.6 19.1,69.8 "/>
</svg>
