<?xml version="1.0" encoding="utf-8"?>
<!-- Generator: Adobe Illustrator 24.1.0, SVG Export Plug-In . SVG Version: 6.00 Build 0)  -->
<svg version="1.1" id="Layer_1" xmlns="http://www.w3.org/2000/svg" xmlns:xlink="http://www.w3.org/1999/xlink" x="0px" y="0px"
	 viewBox="0 0 82.4 114.9" style="enable-background:new 0 0 82.4 114.9;" xml:space="preserve">
<style type="text/css">
	.st0{fill:#FFFFFF;}
	.st1{fill:#2C3E50;}
</style>
<path class="st0" d="M8.5,0C3.8,0,0,4,0,8.9V106c0,4.9,3.8,8.9,8.5,8.9h65.4c4.7,0,8.5-4,8.5-8.9V8.9C82.4,4,78.6,0,73.9,0H8.5z"/>
<polygon class="st1" points="7.8,21.2 11.5,16.1 15.3,21.2 13.2,22.7 11.6,21.4 12.3,23.7 10.8,23.7 11.5,21.4 9.8,22.7 "/>
<polygon class="st1" points="74.6,93.6 70.8,98.8 67.1,93.6 69.1,92.1 70.7,93.4 70.1,91.1 71.6,91.1 70.9,93.4 72.5,92.1 "/>
<path class="st1" d="M13.1,10.4c0.5,0.4,0.7,0.9,0.7,1.6c0,1.5-1,2.3-2.3,2.3c-1.3,0-2.3-0.8-2.3-2.3c0-0.6,0.2-1.2,0.7-1.6
	c-0.5-0.4-0.7-0.9-0.7-1.6c0-1.5,1.1-2.3,2.3-2.3c1.1,0,2.3,0.8,2.3,2.3C13.8,9.5,13.6,10.1,13.1,10.4z M12.4,12
	c0-0.5-0.4-0.8-0.8-0.8c-0.5,0-0.8,0.4-0.8,0.8c0,0.4,0.4,0.8,0.8,0.8C12,12.8,12.4,12.4,12.4,12z M12.4,8.9c0-0.5-0.4-0.8-0.8-0.8
	c-0.4,0-0.8,0.3-0.8,0.8c0,0.5,0.4,0.8,0.8,0.8C12,9.7,12.4,9.4,12.4,8.9z"/>
<path class="st1" d="M69.3,104.4c-0.5-0.4-0.7-0.9-0.7-1.6c0-1.5,1-2.3,2.3-2.3c1.3,0,2.3,0.8,2.3,2.3c0,0.6-0.2,1.2-0.7,1.6
	c0.5,0.4,0.7,0.9,0.7,1.6c0,1.5-1.1,2.3-2.3,2.3c-1.1,0-2.3-0.8-2.3-2.3C68.5,105.4,68.8,104.8,69.3,104.4z M70,102.9
	c0,0.5,0.4,0.8,0.8,0.8s0.8-0.4,0.8-0.8c0-0.4-0.4-0.8-0.8-0.8S70,102.4,70,102.9z M70,106c0,0.5,0.4,0.8,0.8,0.8
	c0.4,0,0.8-0.3,0.8-0.8c0-0.5-0.4-0.8-0.8-0.8C70.4,105.2,70,105.4,70,106z"/>
<polygon class="st1" points="19.3,24.7 26.9,14.2 34.5,24.7 30.4,27.7 27.1,25 28.4,29.7 25.4,29.7 26.7,25 23.5,27.7 "/>
<polygon class="st1" points="47.9,24.7 55.5,14.2 63,24.7 58.9,27.7 55.6,25 56.9,29.7 54,29.7 55.3,25 52,27.7 "/>
<polygon class="st1" points="19.3,47.8 26.9,37.3 34.5,47.8 30.4,50.8 27.1,48.1 28.4,52.8 25.4,52.8 26.7,48.1 23.5,50.8 "/>
<polygon class="st1" points="47.9,47.8 55.5,37.3 63,47.8 58.9,50.8 55.6,48.1 56.9,52.8 54,52.8 55.3,48.1 52,50.8 "/>
<polygon class="st1" points="63,90 55.5,100.5 47.9,90 52,87 55.3,89.7 54,85 56.9,85 55.6,89.7 58.9,87 "/>
<polygon class="st1" points="34.5,90 26.9,100.5 19.3,90 23.5,87 26.7,89.7 25.4,85 28.4,85 27.1,89.7 30.4,87 "/>
<polygon class="st1" points="63,66.9 55.5,77.4 47.9,66.9 52,63.9 55.3,66.6 54,61.9 56.9,61.9 55.6,66.6 58.9,63.9 "/>
<polygon class="st1" points="34.5,66.9 26.9,77.4 19.3,66.9 23.5,63.9 26.7,66.6 25.4,61.9 28.4,61.9 27.1,66.6 30.4,63.9 "/>
</svg>
