<?xml version="1.0" encoding="utf-8"?>
<!-- Generator: Adobe Illustrator 24.1.0, SVG Export Plug-In . SVG Version: 6.00 Build 0)  -->
<svg version="1.1" id="Layer_1" xmlns="http://www.w3.org/2000/svg" xmlns:xlink="http://www.w3.org/1999/xlink" x="0px" y="0px"
	 viewBox="0 0 82.4 114.9" style="enable-background:new 0 0 82.4 114.9;" xml:space="preserve">
<style type="text/css">
	.st0{fill:#FFFFFF;}
	.st1{fill:#C0392B;}
	.st2{fill:#2C3E50;}
</style>
<path class="st0" d="M8.5,0C3.8,0,0,4,0,8.9V106c0,4.9,3.8,8.9,8.5,8.9h65.4c4.7,0,8.5-4,8.5-8.9V8.9C82.4,4,78.6,0,73.9,0H8.5z"/>
<polygon class="st1" points="13.2,16.1 15.3,18.8 11.5,23.7 7.8,18.8 9.8,16.1 11.5,18.3 "/>
<polygon class="st1" points="69.1,98.8 67.1,96.1 70.8,91.1 74.6,96.1 72.5,98.8 70.8,96.5 "/>
<path class="st2" d="M13.8,12c0,1.2-0.8,2.3-2.3,2.3c-1.8,0-2.7-1.8-2-3.4l1.8-4.2h1.6l-1.3,3.2C12.9,9.8,13.8,10.6,13.8,12z
	 M10.7,12c0,1,1.5,1.1,1.6,0C12.4,10.9,10.7,10.9,10.7,12z"/>
<path class="st2" d="M68.6,102.8c0-1.2,0.8-2.3,2.3-2.3c1.8,0,2.7,1.8,2,3.4l-1.8,4.2h-1.6l1.3-3.2
	C69.4,105.1,68.6,104.3,68.6,102.8z M71.6,102.9c0-1-1.5-1.1-1.6,0C70,103.9,71.7,104,71.6,102.9z"/>
<polygon class="st1" points="30.3,14.9 34.4,20.3 26.9,30.3 19.4,20.3 23.5,14.9 26.9,19.4 "/>
<polygon class="st1" points="58.9,14.9 63,20.3 55.4,30.3 47.9,20.3 52,14.9 55.4,19.4 "/>
<polygon class="st1" points="30.3,48.9 34.4,54.3 26.9,64.3 19.4,54.3 23.5,48.9 26.9,53.4 "/>
<polygon class="st1" points="58.9,48.9 63,54.3 55.4,64.3 47.9,54.3 52,48.9 55.4,53.4 "/>
<polygon class="st1" points="52,100 47.9,94.5 55.4,84.6 63,94.5 58.9,100 55.4,95.4 "/>
<polygon class="st1" points="23.5,100 19.4,94.5 26.9,84.6 34.4,94.5 30.3,100 26.9,95.4 "/>
</svg>
