<?xml version="1.0" encoding="utf-8"?>
<!-- Generator: Adobe Illustrator 24.1.0, SVG Export Plug-In . SVG Version: 6.00 Build 0)  -->
<svg version="1.1" id="Layer_1" xmlns="http://www.w3.org/2000/svg" xmlns:xlink="http://www.w3.org/1999/xlink" x="0px" y="0px"
	 viewBox="0 0 82.4 114.9" style="enable-background:new 0 0 82.4 114.9;" xml:space="preserve">
<style type="text/css">
	.st0{fill:#FFFFFF;}
	.st1{fill:#C0392B;}
	.st2{fill:#2C3E50;}
</style>
<path class="st0" d="M8.5,0C3.8,0,0,4,0,8.9V106c0,4.9,3.8,8.9,8.5,8.9h65.4c4.7,0,8.5-4,8.5-8.9V8.9C82.4,4,78.6,0,73.9,0H8.5z"/>
<polygon class="st1" points="11.6,23.6 11.5,23.6 11.5,23.6 7.8,19.9 11.5,16.2 15.3,19.9 "/>
<polygon class="st1" points="70.9,98.7 70.8,98.7 70.8,98.7 67.1,95 70.8,91.2 74.6,95 "/>
<path class="st2" d="M13.8,12c0,1.2-0.8,2.3-2.3,2.3c-1.8,0-2.7-1.8-2-3.4l1.8-4.2h1.6l-1.3,3.2C12.9,9.8,13.8,10.6,13.8,12z
	 M10.7,12c0,1,1.5,1.1,1.6,0C12.4,10.9,10.7,10.9,10.7,12z"/>
<path class="st2" d="M68.6,102.8c0-1.2,0.8-2.3,2.3-2.3c1.8,0,2.7,1.8,2,3.4l-1.8,4.2h-1.6l1.3-3.2
	C69.4,105.1,68.6,104.3,68.6,102.8z M71.7,102.9c0-1-1.5-1.1-1.6,0C70,103.9,71.7,104,71.7,102.9z"/>
<polygon class="st1" points="27,30.2 26.9,30.3 26.8,30.2 19.1,22.5 26.9,14.7 34.7,22.5 "/>
<polygon class="st1" points="55.5,30.2 55.4,30.3 55.4,30.2 47.7,22.5 55.4,14.7 63.2,22.5 "/>
<polygon class="st1" points="27,64.3 26.9,64.4 26.8,64.3 19.1,56.6 26.9,48.8 34.7,56.6 "/>
<polygon class="st1" points="55.5,64.3 55.4,64.4 55.4,64.3 47.7,56.6 55.4,48.8 63.2,56.6 "/>
<polygon class="st1" points="55.4,84.6 55.4,84.6 55.5,84.6 63.2,92.3 55.4,100.1 47.7,92.3 "/>
<polygon class="st1" points="26.8,84.6 26.9,84.6 27,84.6 34.7,92.3 26.9,100.1 19.1,92.3 "/>
</svg>
