<?xml version="1.0" encoding="utf-8"?>
<!-- Generator: Adobe Illustrator 24.1.0, SVG Export Plug-In . SVG Version: 6.00 Build 0)  -->
<svg version="1.1" id="Layer_1" xmlns="http://www.w3.org/2000/svg" xmlns:xlink="http://www.w3.org/1999/xlink" x="0px" y="0px"
	 viewBox="0 0 82.4 114.9" style="enable-background:new 0 0 82.4 114.9;" xml:space="preserve">
<style type="text/css">
	.st0{fill:#FFFFFF;}
	.st1{fill:#C0392B;}
	.st2{fill:#2C3E50;}
</style>
<path class="st0" d="M8.5,0C3.8,0,0,4,0,8.9V106c0,4.9,3.8,8.9,8.5,8.9h65.4c4.7,0,8.5-4,8.5-8.9V8.9C82.4,4,78.6,0,73.9,0H8.5z"/>
<polygon class="st1" points="13.2,16.1 15.3,18.8 11.5,23.7 7.8,18.8 9.8,16.1 11.5,18.3 "/>
<polygon class="st1" points="69.1,98.8 67.1,96.1 70.8,91.1 74.6,96.1 72.5,98.8 70.8,96.5 "/>
<path class="st2" d="M13.9,12c0,1.3-0.9,2.2-2.3,2.3c-0.4,0-1.4,0-2.4-0.3l0.1-1.5c2.4,0.8,3,0.2,3-0.5c0-0.9-0.6-1.2-2.9-1.3v-4
	h3.9v1.5H11v1.3C12.9,9.6,13.9,10.2,13.9,12z"/>
<path class="st2" d="M68.5,102.9c0-1.3,0.9-2.2,2.3-2.3c0.4,0,1.4,0,2.4,0.3l-0.1,1.5c-2.4-0.8-3-0.2-3,0.5c0,0.9,0.6,1.2,2.9,1.3v4
	H69v-1.5h2.3v-1.3C69.4,105.3,68.5,104.6,68.5,102.9z"/>
<polygon class="st1" points="30.3,14.9 34.4,20.3 26.9,30.3 19.4,20.3 23.5,14.9 26.9,19.4 "/>
<polygon class="st1" points="58.9,14.9 63,20.3 55.4,30.3 47.9,20.3 52,14.9 55.4,19.4 "/>
<polygon class="st1" points="44.6,49.5 48.7,54.9 41.2,64.9 33.7,54.9 37.8,49.5 41.2,54 "/>
<polygon class="st1" points="52,100 47.9,94.5 55.4,84.6 63,94.5 58.9,100 55.4,95.4 "/>
<polygon class="st1" points="23.5,100 19.4,94.5 26.9,84.6 34.4,94.5 30.3,100 26.9,95.4 "/>
</svg>
