<?xml version="1.0" encoding="utf-8"?>
<!-- Generator: Adobe Illustrator 24.1.0, SVG Export Plug-In . SVG Version: 6.00 Build 0)  -->
<svg version="1.1" id="Layer_1" xmlns="http://www.w3.org/2000/svg" xmlns:xlink="http://www.w3.org/1999/xlink" x="0px" y="0px"
	 viewBox="0 0 82.4 114.9" style="enable-background:new 0 0 82.4 114.9;" xml:space="preserve">
<style type="text/css">
	.st0{fill:#FFFFFF;}
	.st1{fill:#2C3E50;}
</style>
<path class="st0" d="M8.5,0C3.8,0,0,4,0,8.9V106c0,4.9,3.8,8.9,8.5,8.9h65.4c4.7,0,8.5-4,8.5-8.9V8.9C82.4,4,78.6,0,73.9,0H8.5z"/>
<polygon class="st1" points="7.8,21.2 11.5,16.1 15.3,21.2 13.2,22.7 11.6,21.4 12.3,23.7 10.8,23.7 11.5,21.4 9.8,22.7 "/>
<polygon class="st1" points="74.6,93.6 70.8,98.8 67.1,93.6 69.1,92.1 70.7,93.4 70.1,91.1 71.6,91.1 70.9,93.4 72.5,92.1 "/>
<path class="st1" d="M11.5,6.5h0.2l3.2,7.9h-1.7l-0.3-0.8h-2.5L10,14.4H8.3L11.5,6.5z M12.2,12.1l-0.7-2l-0.7,2H12.2z"/>
<path class="st1" d="M70.9,108.4h-0.2l-3.2-7.9h1.7l0.3,0.8h2.5l0.3-0.8h1.7L70.9,108.4z M70.1,102.7l0.7,2l0.7-2H70.1z"/>
<polygon class="st1" points="21,64.7 41.2,36.8 61.4,64.7 50.4,72.9 41.6,65.6 45.2,78.1 37.2,78.1 40.7,65.6 32,72.9 "/>
</svg>
