<?xml version="1.0" encoding="utf-8"?>
<!-- Generator: Adobe Illustrator 24.1.0, SVG Export Plug-In . SVG Version: 6.00 Build 0)  -->
<svg version="1.1" id="Layer_1" xmlns="http://www.w3.org/2000/svg" xmlns:xlink="http://www.w3.org/1999/xlink" x="0px" y="0px"
	 viewBox="0 0 82.4 114.9" style="enable-background:new 0 0 82.4 114.9;" xml:space="preserve">
<style type="text/css">
	.st0{fill:#FFFFFF;}
	.st1{fill:#2C3E50;}
</style>
<path class="st0" d="M8.5,0C3.8,0,0,4,0,8.9V106c0,4.9,3.8,8.9,8.5,8.9h65.4c4.7,0,8.5-4,8.5-8.9V8.9C82.4,4,78.6,0,73.9,0H8.5z"/>
<polygon class="st1" points="7.8,21.2 11.5,16.1 15.3,21.2 13.2,22.7 11.6,21.4 12.3,23.7 10.8,23.7 11.5,21.4 9.8,22.7 "/>
<polygon class="st1" points="74.6,93.6 70.8,98.8 67.1,93.6 69.1,92.1 70.7,93.4 70.1,91.1 71.6,91.1 70.9,93.4 72.5,92.1 "/>
<path class="st1" d="M13.9,12c0,1.3-0.9,2.2-2.3,2.3c-0.4,0-1.4,0-2.4-0.3l0.1-1.5c2.4,0.8,3,0.2,3-0.5c0-0.9-0.6-1.2-2.9-1.3v-4
	h3.9v1.5H11v1.3C12.9,9.6,13.9,10.2,13.9,12z"/>
<path class="st1" d="M68.5,102.9c0-1.3,0.9-2.2,2.3-2.3c0.4,0,1.4,0,2.4,0.3l-0.1,1.5c-2.4-0.8-3-0.2-3,0.5c0,0.9,0.6,1.2,2.9,1.3v4
	H69v-1.5h2.3v-1.3C69.4,105.3,68.5,104.6,68.5,102.9z"/>
<polygon class="st1" points="19.3,25.2 26.9,14.7 34.5,25.2 30.3,28.3 27.1,25.6 28.4,30.2 25.4,30.2 26.7,25.6 23.4,28.3 "/>
<polygon class="st1" points="47.9,25.2 55.4,14.7 63,25.2 58.9,28.3 55.6,25.6 56.9,30.2 53.9,30.2 55.3,25.6 52,28.3 "/>
<polygon class="st1" points="33.6,59.4 41.2,48.9 48.8,59.4 44.6,62.5 41.4,59.8 42.7,64.4 39.7,64.4 41,59.8 37.7,62.5 "/>
<polygon class="st1" points="63,89.5 55.4,99.9 47.9,89.5 52,86.4 55.3,89.1 53.9,84.5 56.9,84.5 55.6,89.1 58.9,86.4 "/>
<polygon class="st1" points="34.5,89.5 26.9,99.9 19.3,89.5 23.4,86.4 26.7,89.1 25.4,84.5 28.4,84.5 27.1,89.1 30.3,86.4 "/>
</svg>
