<?xml version="1.0" encoding="utf-8"?>
<!-- Generator: Adobe Illustrator 24.1.0, SVG Export Plug-In . SVG Version: 6.00 Build 0)  -->
<svg version="1.1" id="Layer_1" xmlns="http://www.w3.org/2000/svg" xmlns:xlink="http://www.w3.org/1999/xlink" x="0px" y="0px"
	 viewBox="0 0 82.4 114.9" style="enable-background:new 0 0 82.4 114.9;" xml:space="preserve">
<style type="text/css">
	.st0{fill:#FFFFFF;}
	.st1{fill:#2C3E50;}
</style>
<path class="st0" d="M8.5,0C3.8,0,0,4,0,8.9V106c0,4.9,3.8,8.9,8.5,8.9h65.4c4.7,0,8.5-4,8.5-8.9V8.9C82.4,4,78.6,0,73.9,0H8.5z"/>
<path class="st1" d="M13.4,22.7c-0.7,0-1.3-0.4-1.6-0.9c0,0,0,0-0.1,0l0.5,1.9h-1.5l0.5-1.9c0,0,0,0-0.1,0c-0.3,0.6-0.9,0.9-1.6,0.9
	c-1,0-1.8-0.8-1.8-1.8c0-1,0.8-1.8,1.8-1.8c0.2,0,0.4,0,0.6,0.1c-0.4-0.3-0.6-0.8-0.6-1.3c0-1,0.8-1.8,1.8-1.8c1,0,1.8,0.8,1.8,1.8
	c0,0.5-0.2,1-0.6,1.3c0.2-0.1,0.4-0.1,0.6-0.1c1,0,1.8,0.8,1.8,1.8C15.2,21.9,14.4,22.7,13.4,22.7z"/>
<path class="st1" d="M69,92.2c0.7,0,1.3,0.4,1.6,0.9c0,0,0,0,0.1,0l-0.5-1.9h1.5L71,93.1c0,0,0,0,0.1,0c0.3-0.6,0.9-0.9,1.6-0.9
	c1,0,1.8,0.8,1.8,1.8c0,1-0.8,1.8-1.8,1.8c-0.2,0-0.4,0-0.6-0.1c0.4,0.3,0.6,0.8,0.6,1.3c0,1-0.8,1.8-1.8,1.8c-1,0-1.8-0.8-1.8-1.8
	c0-0.5,0.2-1,0.6-1.3c-0.2,0.1-0.4,0.1-0.6,0.1c-1,0-1.8-0.8-1.8-1.8C67.2,93,68,92.2,69,92.2z"/>
<path class="st1" d="M12,14.2v-1.9H8.8l2.2-5.7h1.6L11,10.8h1V9.5l1.5-1v2.3h0.8v1.5h-0.8v1.9H12z"/>
<path class="st1" d="M70.4,100.6v1.9h3.2l-2.2,5.7h-1.6l1.6-4.2h-1v1.3l-1.5,1V104h-0.8v-1.5h0.8v-1.9H70.4z"/>
<path class="st1" d="M30.6,28.2c-1.4,0-2.5-0.7-3.2-1.9c0,0-0.1,0-0.1,0l1.1,3.9h-2.9l1.1-3.9c0,0-0.1,0-0.1,0
	c-0.6,1.1-1.8,1.9-3.2,1.9c-2,0-3.6-1.6-3.6-3.6c0-2,1.6-3.6,3.6-3.6c0.4,0,0.8,0.1,1.2,0.2c-0.7-0.7-1.2-1.6-1.2-2.6
	c0-2,1.6-3.6,3.6-3.6c2,0,3.6,1.6,3.6,3.6c0,1-0.4,2-1.2,2.6c0.4-0.1,0.8-0.2,1.2-0.2c2,0,3.6,1.6,3.6,3.6
	C34.2,26.6,32.6,28.2,30.6,28.2z"/>
<path class="st1" d="M59.1,28.2c-1.4,0-2.5-0.7-3.2-1.9c0,0-0.1,0-0.1,0l1.1,3.9H54l1.1-3.9c0,0-0.1,0-0.1,0
	c-0.6,1.1-1.8,1.9-3.2,1.9c-2,0-3.6-1.6-3.6-3.6c0-2,1.6-3.6,3.6-3.6c0.4,0,0.8,0.1,1.2,0.2c-0.7-0.7-1.2-1.6-1.2-2.6
	c0-2,1.6-3.6,3.6-3.6c2,0,3.6,1.6,3.6,3.6c0,1-0.4,2-1.2,2.6c0.4-0.1,0.8-0.2,1.2-0.2c2,0,3.6,1.6,3.6,3.6
	C62.7,26.6,61.1,28.2,59.1,28.2z"/>
<path class="st1" d="M51.8,86.6c1.4,0,2.5,0.7,3.2,1.9c0,0,0.1,0,0.1,0L54,84.6h2.9l-1.1,3.9c0,0,0.1,0,0.1,0
	c0.6-1.1,1.8-1.9,3.2-1.9c2,0,3.6,1.6,3.6,3.6c0,2-1.6,3.6-3.6,3.6c-0.4,0-0.8-0.1-1.2-0.2c0.7,0.7,1.2,1.6,1.2,2.6
	c0,2-1.6,3.6-3.6,3.6c-2,0-3.6-1.6-3.6-3.6c0-1,0.4-2,1.2-2.6c-0.4,0.1-0.8,0.2-1.2,0.2c-2,0-3.6-1.6-3.6-3.6
	C48.1,88.2,49.8,86.6,51.8,86.6z"/>
<path class="st1" d="M23.2,86.6c1.4,0,2.5,0.7,3.2,1.9c0,0,0.1,0,0.1,0l-1.1-3.9h2.9l-1.1,3.9c0,0,0.1,0,0.1,0
	c0.6-1.1,1.8-1.9,3.2-1.9c2,0,3.6,1.6,3.6,3.6c0,2-1.6,3.6-3.6,3.6c-0.4,0-0.8-0.1-1.2-0.2c0.7,0.7,1.2,1.6,1.2,2.6
	c0,2-1.6,3.6-3.6,3.6c-2,0-3.6-1.6-3.6-3.6c0-1,0.4-2,1.2-2.6c-0.4,0.1-0.8,0.2-1.2,0.2c-2,0-3.6-1.6-3.6-3.6
	C19.6,88.2,21.2,86.6,23.2,86.6z"/>
</svg>
