<?xml version="1.0" encoding="utf-8"?>
<!-- Generator: Adobe Illustrator 24.1.0, SVG Export Plug-In . SVG Version: 6.00 Build 0)  -->
<svg version="1.1" id="Layer_1" xmlns="http://www.w3.org/2000/svg" xmlns:xlink="http://www.w3.org/1999/xlink" x="0px" y="0px"
	 viewBox="0 0 82.4 114.9" style="enable-background:new 0 0 82.4 114.9;" xml:space="preserve">
<style type="text/css">
	.st0{fill:#FFFFFF;}
	.st1{fill:#C0392B;}
	.st2{fill:#2C3E50;}
</style>
<path class="st0" d="M8.5,0C3.8,0,0,4,0,8.9V106c0,4.9,3.8,8.9,8.5,8.9h65.4c4.7,0,8.5-4,8.5-8.9V8.9C82.4,4,78.6,0,73.9,0H8.5z"/>
<polygon class="st1" points="11.6,23.6 11.5,23.6 11.5,23.6 7.8,19.9 11.5,16.2 15.3,19.9 "/>
<polygon class="st1" points="70.9,98.7 70.8,98.7 70.8,98.7 67.1,95 70.8,91.2 74.6,95 "/>
<path class="st2" d="M12,14.2v-1.9H8.8l2.2-5.7h1.6L11,10.8h1V9.5l1.5-1v2.3h0.8v1.5h-0.8v1.9H12z"/>
<path class="st2" d="M70.4,100.6v1.9h3.2l-2.2,5.7h-1.6l1.6-4.2h-1v1.3l-1.5,1V104h-0.8v-1.5h0.8v-1.9H70.4z"/>
<polygon class="st1" points="27,30.2 26.9,30.3 26.8,30.2 19.1,22.5 26.9,14.7 34.7,22.5 "/>
<polygon class="st1" points="55.5,30.2 55.4,30.3 55.4,30.2 47.7,22.5 55.4,14.7 63.2,22.5 "/>
<polygon class="st1" points="55.4,84.6 55.4,84.6 55.5,84.6 63.2,92.3 55.4,100.1 47.7,92.3 "/>
<polygon class="st1" points="26.8,84.6 26.9,84.6 27,84.6 34.7,92.3 26.9,100.1 19.1,92.3 "/>
</svg>
