<?xml version="1.0" encoding="utf-8"?>
<!-- Generator: Adobe Illustrator 24.1.0, SVG Export Plug-In . SVG Version: 6.00 Build 0)  -->
<svg version="1.1" id="Layer_1" xmlns="http://www.w3.org/2000/svg" xmlns:xlink="http://www.w3.org/1999/xlink" x="0px" y="0px"
	 viewBox="0 0 82.4 114.9" style="enable-background:new 0 0 82.4 114.9;" xml:space="preserve">
<style type="text/css">
	.st0{fill:#FFFFFF;}
	.st1{fill:#2C3E50;}
</style>
<path class="st0" d="M8.5,0C3.8,0,0,4,0,8.9V106c0,4.9,3.8,8.9,8.5,8.9h65.4c4.7,0,8.5-4,8.5-8.9V8.9C82.4,4,78.6,0,73.9,0H8.5z"/>
<path class="st1" d="M13.4,22.7c-0.7,0-1.3-0.4-1.6-0.9c0,0,0,0-0.1,0l0.5,1.9h-1.5l0.5-1.9c0,0,0,0-0.1,0c-0.3,0.6-0.9,0.9-1.6,0.9
	c-1,0-1.8-0.8-1.8-1.8c0-1,0.8-1.8,1.8-1.8c0.2,0,0.4,0,0.6,0.1c-0.4-0.3-0.6-0.8-0.6-1.3c0-1,0.8-1.8,1.8-1.8c1,0,1.8,0.8,1.8,1.8
	c0,0.5-0.2,1-0.6,1.3c0.2-0.1,0.4-0.1,0.6-0.1c1,0,1.8,0.8,1.8,1.8C15.2,21.9,14.4,22.7,13.4,22.7z"/>
<path class="st1" d="M69,92.2c0.7,0,1.3,0.4,1.6,0.9c0,0,0,0,0.1,0l-0.5-1.9h1.5L71,93.1c0,0,0,0,0.1,0c0.3-0.6,0.9-0.9,1.6-0.9
	c1,0,1.8,0.8,1.8,1.8c0,1-0.8,1.8-1.8,1.8c-0.2,0-0.4,0-0.6-0.1c0.4,0.3,0.6,0.8,0.6,1.3c0,1-0.8,1.8-1.8,1.8c-1,0-1.8-0.8-1.8-1.8
	c0-0.5,0.2-1,0.6-1.3c-0.2,0.1-0.4,0.1-0.6,0.1c-1,0-1.8-0.8-1.8-1.8C67.2,93,68,92.2,69,92.2z"/>
<path class="st1" d="M71.7,105.2H71c-0.5,0-0.8,0.3-0.8,0.7c0,1.1,1.9,0.9,2.5,0.6l0.2,1.4c-0.5,0.2-1.2,0.3-2,0.3
	c-1.4-0.1-2.3-1-2.3-2.3c0-0.6,0.2-1.1,0.8-1.5c-0.6-0.4-0.9-1-0.9-1.6c0-1.3,0.8-2.3,2.2-2.3c0.8,0,1.9,0.1,2.4,0.3l-0.2,1.5
	c-0.6-0.3-2.8-0.8-2.8,0.4c0,0.4,0.4,0.8,0.8,0.8h0.7L71.7,105.2z"/>
<path class="st1" d="M10.6,9.6h0.7c0.5,0,0.8-0.3,0.8-0.7c0-1.1-1.9-0.9-2.5-0.6L9.4,6.9c0.5-0.2,1.2-0.3,2-0.3
	c1.4,0.1,2.3,1,2.3,2.3c0,0.6-0.2,1.1-0.8,1.5c0.6,0.4,0.9,1,0.9,1.6c0,1.3-0.8,2.3-2.2,2.3c-0.8,0-1.9-0.1-2.4-0.3l0.2-1.5
	c0.6,0.3,2.8,0.8,2.8-0.4c0-0.4-0.4-0.8-0.8-0.8h-0.7L10.6,9.6z"/>
<path class="st1" d="M44.9,63.3c-1.4,0-2.5-0.7-3.2-1.9c0,0-0.1,0-0.1,0l1.1,3.9h-2.9l1.1-3.9c0,0-0.1,0-0.1,0
	c-0.6,1.1-1.8,1.9-3.2,1.9c-2,0-3.6-1.6-3.6-3.6c0-2,1.6-3.6,3.6-3.6c0.4,0,0.8,0.1,1.2,0.2c-0.7-0.7-1.2-1.6-1.2-2.6
	c0-2,1.6-3.6,3.6-3.6c2,0,3.6,1.6,3.6,3.6c0,1-0.4,2-1.2,2.6c0.4-0.1,0.8-0.2,1.2-0.2c2,0,3.6,1.6,3.6,3.6
	C48.5,61.7,46.9,63.3,44.9,63.3z"/>
<path class="st1" d="M44.8,28.2c-1.4,0-2.5-0.7-3.2-1.9c0,0-0.1,0-0.1,0l1.1,3.9h-2.9l1.1-3.9c0,0-0.1,0-0.1,0
	c-0.6,1.1-1.8,1.9-3.2,1.9c-2,0-3.6-1.6-3.6-3.6c0-2,1.6-3.6,3.6-3.6c0.4,0,0.8,0.1,1.2,0.2c-0.7-0.7-1.2-1.6-1.2-2.6
	c0-2,1.6-3.6,3.6-3.6c2,0,3.6,1.6,3.6,3.6c0,1-0.4,2-1.2,2.6C44,21,44.4,21,44.8,21c2,0,3.6,1.6,3.6,3.6
	C48.5,26.6,46.8,28.2,44.8,28.2z"/>
<path class="st1" d="M37.5,86.6c1.4,0,2.5,0.7,3.2,1.9c0,0,0.1,0,0.1,0l-1.1-3.9h2.9l-1.1,3.9c0,0,0.1,0,0.1,0
	c0.6-1.1,1.8-1.9,3.2-1.9c2,0,3.6,1.6,3.6,3.6c0,2-1.6,3.6-3.6,3.6c-0.4,0-0.8-0.1-1.2-0.2c0.7,0.7,1.2,1.6,1.2,2.6
	c0,2-1.6,3.6-3.6,3.6c-2,0-3.6-1.6-3.6-3.6c0-1,0.4-2,1.2-2.6c-0.4,0.1-0.8,0.2-1.2,0.2c-2,0-3.6-1.6-3.6-3.6
	C33.9,88.2,35.5,86.6,37.5,86.6z"/>
</svg>
