<?xml version="1.0" encoding="utf-8"?>
<!-- Generator: Adobe Illustrator 24.1.0, SVG Export Plug-In . SVG Version: 6.00 Build 0)  -->
<svg version="1.1" id="Layer_1" xmlns="http://www.w3.org/2000/svg" xmlns:xlink="http://www.w3.org/1999/xlink" x="0px" y="0px"
	 viewBox="0 0 82.4 114.9" style="enable-background:new 0 0 82.4 114.9;" xml:space="preserve">
<style type="text/css">
	.st0{fill:#FFFFFF;}
	.st1{fill:#C0392B;}
	.st2{fill:#2C3E50;}
</style>
<path class="st0" d="M8.5,0C3.8,0,0,4,0,8.9V106c0,4.9,3.8,8.9,8.5,8.9h65.4c4.7,0,8.5-4,8.5-8.9V8.9C82.4,4,78.6,0,73.9,0H8.5z"/>
<polygon class="st1" points="11.6,23.6 11.5,23.6 11.5,23.6 7.8,19.9 11.5,16.2 15.3,19.9 "/>
<polygon class="st1" points="70.9,98.7 70.8,98.7 70.8,98.7 67.1,95 70.8,91.2 74.6,95 "/>
<path class="st2" d="M71.7,105.2H71c-0.5,0-0.8,0.3-0.8,0.7c0,1.1,1.9,0.9,2.5,0.6l0.2,1.4c-0.5,0.2-1.2,0.3-2,0.3
	c-1.4-0.1-2.3-1-2.3-2.3c0-0.6,0.2-1.1,0.8-1.5c-0.6-0.4-0.9-1-0.9-1.6c0-1.3,0.8-2.3,2.2-2.3c0.8,0,1.9,0.1,2.4,0.3l-0.2,1.5
	c-0.6-0.3-2.8-0.8-2.8,0.4c0,0.4,0.4,0.8,0.8,0.8h0.7L71.7,105.2z"/>
<path class="st2" d="M10.6,9.6h0.7c0.5,0,0.8-0.3,0.8-0.7c0-1.1-1.9-0.9-2.5-0.6L9.4,6.9c0.5-0.2,1.2-0.3,2-0.3
	c1.4,0.1,2.3,1,2.3,2.3c0,0.6-0.2,1.1-0.8,1.5c0.6,0.4,0.9,1,0.9,1.6c0,1.3-0.8,2.3-2.2,2.3c-0.8,0-1.9-0.1-2.4-0.3l0.2-1.5
	c0.6,0.3,2.8,0.8,2.8-0.4c0-0.4-0.4-0.8-0.8-0.8h-0.7L10.6,9.6z"/>
<polygon class="st1" points="41.3,65.4 41.2,65.4 41.1,65.4 33.4,57.7 41.2,49.9 49,57.7 "/>
<polygon class="st1" points="41.2,30.2 41.2,30.3 41.1,30.2 33.4,22.5 41.2,14.7 48.9,22.5 "/>
<polygon class="st1" points="41.1,84.6 41.2,84.6 41.2,84.6 48.9,92.3 41.2,100.1 33.4,92.3 "/>
</svg>
