<?xml version="1.0" encoding="utf-8"?>
<!-- Generator: Adobe Illustrator 24.1.0, SVG Export Plug-In . SVG Version: 6.00 Build 0)  -->
<svg version="1.1" id="Layer_1" xmlns="http://www.w3.org/2000/svg" xmlns:xlink="http://www.w3.org/1999/xlink" x="0px" y="0px"
	 viewBox="0 0 82.4 114.9" style="enable-background:new 0 0 82.4 114.9;" xml:space="preserve">
<style type="text/css">
	.st0{fill:#FFFFFF;}
	.st1{fill:#2C3E50;}
</style>
<path class="st0" d="M8.5,0C3.8,0,0,4,0,8.9V106c0,4.9,3.8,8.9,8.5,8.9h65.4c4.7,0,8.5-4,8.5-8.9V8.9C82.4,4,78.6,0,73.9,0H8.5z"/>
<polygon class="st1" points="7.8,21.2 11.5,16.1 15.3,21.2 13.2,22.7 11.6,21.4 12.3,23.7 10.8,23.7 11.5,21.4 9.8,22.7 "/>
<polygon class="st1" points="74.6,93.6 70.8,98.8 67.1,93.6 69.1,92.1 70.7,93.4 70.1,91.1 71.6,91.1 70.9,93.4 72.5,92.1 "/>
<path class="st1" d="M71.7,105.2H71c-0.5,0-0.8,0.3-0.8,0.7c0,1.1,1.9,0.9,2.5,0.6l0.2,1.4c-0.5,0.2-1.2,0.3-2,0.3
	c-1.4-0.1-2.3-1-2.3-2.3c0-0.6,0.2-1.1,0.8-1.5c-0.6-0.4-0.9-1-0.9-1.6c0-1.3,0.8-2.3,2.2-2.3c0.8,0,1.9,0.1,2.4,0.3l-0.2,1.5
	c-0.6-0.3-2.8-0.8-2.8,0.4c0,0.4,0.4,0.8,0.8,0.8h0.7L71.7,105.2z"/>
<path class="st1" d="M10.6,9.6h0.7c0.5,0,0.8-0.3,0.8-0.7c0-1.1-1.9-0.9-2.5-0.6L9.4,6.9c0.5-0.2,1.2-0.3,2-0.3
	c1.4,0.1,2.3,1,2.3,2.3c0,0.6-0.2,1.1-0.8,1.5c0.6,0.4,0.9,1,0.9,1.6c0,1.3-0.8,2.3-2.2,2.3c-0.8,0-1.9-0.1-2.4-0.3l0.2-1.5
	c0.6,0.3,2.8,0.8,2.8-0.4c0-0.4-0.4-0.8-0.8-0.8h-0.7L10.6,9.6z"/>
<polygon class="st1" points="33.6,59.9 41.2,49.4 48.8,59.9 44.6,62.9 41.4,60.2 42.7,64.9 39.7,64.9 41,60.2 37.7,62.9 "/>
<polygon class="st1" points="33.6,25.2 41.2,14.7 48.7,25.2 44.6,28.3 41.3,25.6 42.6,30.2 39.7,30.2 41,25.6 37.7,28.3 "/>
<polygon class="st1" points="48.7,89.5 41.2,99.9 33.6,89.5 37.7,86.4 41,89.1 39.7,84.5 42.7,84.5 41.3,89.1 44.6,86.4 "/>
</svg>
