<?xml version="1.0" encoding="utf-8"?>
<!-- Generator: Adobe Illustrator 24.1.0, SVG Export Plug-In . SVG Version: 6.00 Build 0)  -->
<svg version="1.1" id="Layer_1" xmlns="http://www.w3.org/2000/svg" xmlns:xlink="http://www.w3.org/1999/xlink" x="0px" y="0px"
	 viewBox="0 0 82.4 114.9" style="enable-background:new 0 0 82.4 114.9;" xml:space="preserve">
<style type="text/css">
	.st0{fill:#FFFFFF;}
	.st1{fill:#C0392B;}
	.st2{fill:#2C3E50;}
</style>
<path class="st0" d="M8.5,0C3.8,0,0,4,0,8.9V106c0,4.9,3.8,8.9,8.5,8.9h65.4c4.7,0,8.5-4,8.5-8.9V8.9C82.4,4,78.6,0,73.9,0H8.5z"/>
<polygon class="st1" points="13.2,16.1 15.3,18.8 11.5,23.7 7.8,18.8 9.8,16.1 11.5,18.3 "/>
<polygon class="st1" points="69.1,98.8 67.1,96.1 70.8,91.1 74.6,96.1 72.5,98.8 70.8,96.5 "/>
<path class="st2" d="M12.3,8.9c0-0.4-0.3-0.7-0.8-0.8c-0.7,0-1.5,0.4-1.8,0.6L9.3,7.3c0.6-0.4,1.5-0.7,2.3-0.7
	c2.2,0.1,3,2.1,1.7,3.8l-1.5,2.3h2.3v1.5H9l2.8-4.5C12.3,9.2,12.3,8.9,12.3,8.9z"/>
<path class="st2" d="M70.1,105.9c0,0.4,0.3,0.7,0.8,0.8c0.7,0,1.5-0.4,1.8-0.6l0.4,1.5c-0.6,0.4-1.5,0.7-2.3,0.7
	c-2.2-0.1-3-2.1-1.7-3.8l1.5-2.3h-2.3v-1.5h5l-2.8,4.5C70.1,105.6,70.1,105.9,70.1,105.9z"/>
<polygon class="st1" points="44.6,14.9 48.7,20.3 41.2,30.3 33.6,20.3 37.7,14.9 41.2,19.4 "/>
<polygon class="st1" points="37.7,100 33.6,94.5 41.2,84.6 48.7,94.5 44.6,100 41.2,95.4 "/>
</svg>
