<?xml version="1.0" encoding="utf-8"?>
<!-- Generator: Adobe Illustrator 24.1.0, SVG Export Plug-In . SVG Version: 6.00 Build 0)  -->
<svg version="1.1" id="Layer_1" xmlns="http://www.w3.org/2000/svg" xmlns:xlink="http://www.w3.org/1999/xlink" x="0px" y="0px"
	 viewBox="0 0 82.4 114.9" style="enable-background:new 0 0 82.4 114.9;" xml:space="preserve">
<style type="text/css">
	.st0{fill:#FFFFFF;}
	.st1{fill:#2C3E50;}
</style>
<path class="st0" d="M8.5,0C3.8,0,0,4,0,8.9V106c0,4.9,3.8,8.9,8.5,8.9h65.4c4.7,0,8.5-4,8.5-8.9V8.9C82.4,4,78.6,0,73.9,0H8.5z"/>
<path class="st1" d="M13.4,22.7c-0.7,0-1.3-0.4-1.6-0.9c0,0,0,0-0.1,0l0.5,1.9h-1.5l0.5-1.9c0,0,0,0-0.1,0c-0.3,0.6-0.9,0.9-1.6,0.9
	c-1,0-1.8-0.8-1.8-1.8c0-1,0.8-1.8,1.8-1.8c0.2,0,0.4,0,0.6,0.1c-0.4-0.3-0.6-0.8-0.6-1.3c0-1,0.8-1.8,1.8-1.8c1,0,1.8,0.8,1.8,1.8
	c0,0.5-0.2,1-0.6,1.3c0.2-0.1,0.4-0.1,0.6-0.1c1,0,1.8,0.8,1.8,1.8C15.2,21.9,14.4,22.7,13.4,22.7z"/>
<path class="st1" d="M69,92.2c0.7,0,1.3,0.4,1.6,0.9c0,0,0,0,0.1,0l-0.5-1.9h1.5L71,93.1c0,0,0,0,0.1,0c0.3-0.6,0.9-0.9,1.6-0.9
	c1,0,1.8,0.8,1.8,1.8c0,1-0.8,1.8-1.8,1.8c-0.2,0-0.4,0-0.6-0.1c0.4,0.3,0.6,0.8,0.6,1.3c0,1-0.8,1.8-1.8,1.8c-1,0-1.8-0.8-1.8-1.8
	c0-0.5,0.2-1,0.6-1.3c-0.2,0.1-0.4,0.1-0.6,0.1c-1,0-1.8-0.8-1.8-1.8C67.2,93,68,92.2,69,92.2z"/>
<path class="st1" d="M12.3,8.9c0-0.4-0.3-0.7-0.8-0.8c-0.7,0-1.5,0.4-1.8,0.6L9.3,7.3c0.6-0.4,1.5-0.7,2.3-0.7
	c2.2,0.1,3,2.1,1.7,3.8l-1.5,2.3h2.3v1.5H9l2.8-4.5C12.3,9.2,12.3,8.9,12.3,8.9z"/>
<path class="st1" d="M70.1,105.9c0,0.4,0.3,0.7,0.8,0.8c0.7,0,1.5-0.4,1.8-0.6l0.4,1.5c-0.6,0.4-1.5,0.7-2.3,0.7
	c-2.2-0.1-3-2.1-1.7-3.8l1.5-2.3h-2.3v-1.5h5l-2.8,4.5C70.1,105.6,70.1,105.9,70.1,105.9z"/>
<path class="st1" d="M13.4,22.7c-0.7,0-1.3-0.4-1.6-0.9c0,0,0,0-0.1,0l0.5,1.9h-1.5l0.5-1.9c0,0,0,0-0.1,0c-0.3,0.6-0.9,0.9-1.6,0.9
	c-1,0-1.8-0.8-1.8-1.8c0-1,0.8-1.8,1.8-1.8c0.2,0,0.4,0,0.6,0.1c-0.4-0.3-0.6-0.8-0.6-1.3c0-1,0.8-1.8,1.8-1.8c1,0,1.8,0.8,1.8,1.8
	c0,0.5-0.2,1-0.6,1.3c0.2-0.1,0.4-0.1,0.6-0.1c1,0,1.8,0.8,1.8,1.8C15.2,21.9,14.4,22.7,13.4,22.7z"/>
<path class="st1" d="M44.8,28.2c-1.4,0-2.5-0.7-3.2-1.9c0,0-0.1,0-0.1,0l1.1,3.9h-2.9l1.1-3.9c0,0-0.1,0-0.1,0
	c-0.6,1.1-1.8,1.9-3.2,1.9c-2,0-3.6-1.6-3.6-3.6c0-2,1.6-3.6,3.6-3.6c0.4,0,0.8,0.1,1.2,0.2c-0.7-0.7-1.2-1.6-1.2-2.6
	c0-2,1.6-3.6,3.6-3.6c2,0,3.6,1.6,3.6,3.6c0,1-0.4,2-1.2,2.6C44,21,44.4,21,44.8,21c2,0,3.6,1.6,3.6,3.6
	C48.5,26.6,46.8,28.2,44.8,28.2z"/>
<path class="st1" d="M37.5,86.6c1.4,0,2.5,0.7,3.2,1.9c0,0,0.1,0,0.1,0l-1.1-3.9h2.9l-1.1,3.9c0,0,0.1,0,0.1,0
	c0.6-1.1,1.8-1.9,3.2-1.9c2,0,3.6,1.6,3.6,3.6c0,2-1.6,3.6-3.6,3.6c-0.4,0-0.8-0.1-1.2-0.2c0.7,0.7,1.2,1.6,1.2,2.6
	c0,2-1.6,3.6-3.6,3.6c-2,0-3.6-1.6-3.6-3.6c0-1,0.4-2,1.2-2.6c-0.4,0.1-0.8,0.2-1.2,0.2c-2,0-3.6-1.6-3.6-3.6
	C33.9,88.2,35.5,86.6,37.5,86.6z"/>
</svg>
