<?xml version="1.0" encoding="utf-8"?>
<!-- Generator: Adobe Illustrator 24.1.0, SVG Export Plug-In . SVG Version: 6.00 Build 0)  -->
<svg version="1.1" id="Layer_1" xmlns="http://www.w3.org/2000/svg" xmlns:xlink="http://www.w3.org/1999/xlink" x="0px" y="0px"
	 viewBox="0 0 82.4 114.9" style="enable-background:new 0 0 82.4 114.9;" xml:space="preserve">
<style type="text/css">
	.st0{fill:#FFFFFF;}
	.st1{fill:#2C3E50;}
</style>
<path class="st0" d="M8.5,0C3.8,0,0,4,0,8.9V106c0,4.9,3.8,8.9,8.5,8.9h65.4c4.7,0,8.5-4,8.5-8.9V8.9C82.4,4,78.6,0,73.9,0H8.5z"/>
<polygon class="st1" points="7.8,21.2 11.5,16.1 15.3,21.2 13.2,22.7 11.6,21.4 12.3,23.7 10.8,23.7 11.5,21.4 9.8,22.7 "/>
<polygon class="st1" points="74.6,93.6 70.8,98.8 67.1,93.6 69.1,92.1 70.7,93.4 70.1,91.1 71.6,91.1 70.9,93.4 72.5,92.1 "/>
<path class="st1" d="M12.3,8.9c0-0.4-0.3-0.7-0.8-0.8c-0.7,0-1.5,0.4-1.8,0.6L9.3,7.3c0.6-0.4,1.5-0.7,2.3-0.7
	c2.2,0.1,3,2.1,1.7,3.8l-1.5,2.3h2.3v1.5H9l2.8-4.5C12.3,9.2,12.3,8.9,12.3,8.9z"/>
<path class="st1" d="M70.1,105.9c0,0.4,0.3,0.7,0.8,0.8c0.7,0,1.5-0.4,1.8-0.6l0.4,1.5c-0.6,0.4-1.5,0.7-2.3,0.7
	c-2.2-0.1-3-2.1-1.7-3.8l1.5-2.3h-2.3v-1.5h5l-2.8,4.5C70.1,105.6,70.1,105.9,70.1,105.9z"/>
<polygon class="st1" points="7.8,21.2 11.5,16.1 15.3,21.2 13.2,22.7 11.6,21.4 12.3,23.7 10.8,23.7 11.5,21.4 9.8,22.7 "/>
<polygon class="st1" points="33.6,25.2 41.2,14.7 48.7,25.2 44.6,28.3 41.3,25.6 42.6,30.2 39.7,30.2 41,25.6 37.7,28.3 "/>
<polygon class="st1" points="48.7,89.5 41.2,99.9 33.6,89.5 37.7,86.4 41,89.1 39.7,84.5 42.7,84.5 41.3,89.1 44.6,86.4 "/>
</svg>
