<?xml version="1.0" encoding="utf-8"?>
<!-- Generator: Adobe Illustrator 24.1.0, SVG Export Plug-In . SVG Version: 6.00 Build 0)  -->
<svg version="1.1" id="Layer_1" xmlns="http://www.w3.org/2000/svg" xmlns:xlink="http://www.w3.org/1999/xlink" x="0px" y="0px"
	 viewBox="0 0 82.4 114.9" style="enable-background:new 0 0 82.4 114.9;" xml:space="preserve">
<style type="text/css">
	.st0{fill:#FFFFFF;}
	.st1{fill:#2C3E50;}
</style>
<path class="st0" d="M8.5,0C3.8,0,0,4,0,8.9V106c0,4.9,3.8,8.9,8.5,8.9h65.4c4.7,0,8.5-4,8.5-8.9V8.9C82.4,4,78.6,0,73.9,0H8.5z"/>
<path class="st1" d="M35.5,61.7c-1.3,0-2.4,0.9-2.4,2.2c0,0.4,0.1,0.9,0.3,1.2h0.8c0.3-0.5,0.7-0.7,1.3-0.7c0.5,0,1,0.3,1.3,0.7h0.8
	c0.2-0.4,0.3-0.8,0.3-1.2C38,62.6,36.9,61.7,35.5,61.7z"/>
<path class="st1" d="M46.9,61.7c-1.3,0-2.4,0.9-2.4,2.2c0,0.4,0.1,0.9,0.3,1.2h0.8c0.3-0.5,0.7-0.7,1.3-0.7c0.5,0,1,0.3,1.3,0.7H49
	c0.2-0.4,0.3-0.8,0.3-1.2C49.3,62.6,48.2,61.7,46.9,61.7z"/>
<path class="st1" d="M43.3,70c-0.5,0.3-1.3,0.9-2.2,0.9c-0.9,0-1.7-0.6-2.2-0.9c-0.2,0-1.1-0.3-0.9,0.6c0.2,0.6,1.9,2,3,2
	c1.2,0,2.8-1.4,3-2C44.5,69.7,43.5,69.9,43.3,70z"/>
<path class="st1" d="M47.1,75.8c-0.1-0.4-3.1,0.1-5.9,0.1c-2.8,0-5.8-0.4-5.9-0.1c-0.1,0.3-0.1,0.6,0,1.1c0.4,1.4,3.5,3.5,5.9,3.5
	c2.3,0,5.5-2.1,5.9-3.5C47.2,76.5,47.2,76.1,47.1,75.8z"/>
<path class="st1" d="M74,49.2c2.4-19.9-21.2-30.7-32.8-14.4C29.5,18.6,5.9,29.4,8.3,49.2c-1.2,0.6-2,1.8-2,3.2c0,2,1.6,3.6,3.6,3.6
	c2,0,3.6-1.6,3.6-3.6c0-1.5-0.9-2.8-2.2-3.4c4.4-12.3,11.4-9.2,12.2,1.3l0.5,6.7c-0.1,0.4-0.1,0.7-0.2,1.1c-1.8,0.4-2.6,3.1-2.3,6.3
	c0.3,2.7,0.8,4.9,2.3,5.6c1.3,4.9,1.6,9.5,5.1,12.3c9.4,7.5,15.2,7.6,24.8,0c3.5-2.8,3.8-7.5,5.1-12.4c1.4-0.8,1.7-2.9,2-5.4
	c0.3-3.2-0.5-5.9-2.2-6.3c-0.1-0.4-0.2-0.8-0.3-1.2l0.5-6.6c0.8-10.4,7.8-13.6,12.2-1.3c-1.3,0.5-2.2,1.8-2.2,3.4
	c0,2,1.6,3.6,3.6,3.6c2,0,3.6-1.6,3.6-3.6C76,51.1,75.2,49.8,74,49.2z M21.4,36.9c-1.1,0-2-0.9-2-2c0-1.1,0.9-2,2-2c1.1,0,2,0.9,2,2
	C23.4,36,22.5,36.9,21.4,36.9z M47.9,37c1.1,0,2,0.9,2,2c0,1.1-0.9,2-2,2c-1.1,0-2-0.9-2-2C45.9,37.9,46.8,37,47.9,37z M42.5,49.2
	c1.1,0,2,0.9,2,2c0,1.1-0.9,2-2,2c-1.1,0-2-0.9-2-2C40.5,50.2,41.4,49.2,42.5,49.2z M35.2,36.6c1.1,0,2,0.9,2,2c0,1.1-0.9,2-2,2
	c-1.1,0-2-0.9-2-2C33.2,37.5,34.1,36.6,35.2,36.6z M31.2,47.5c1.1,0,2,0.9,2,2c0,1.1-0.9,2-2,2c-1.1,0-2-0.9-2-2
	C29.2,48.4,30.1,47.5,31.2,47.5z M57,64.1c-0.1,1.7-0.3,2.4-0.4,2.7l-1,0.6l-0.4,1.6c-1.1,4.5-1.1,8.3-3.8,10.4
	c-3.9,3.1-8.6,4.9-10.1,4.9c-1.5,0-6.1-1.7-10-4.9c-2.6-2.1-2.6-5.9-3.8-10.3L27,67.3l-1.2-0.5c-0.1-0.3-0.3-1.1-0.5-2.7
	c-0.1-1.2,0-2,0.1-2.5l1.7-0.4l0.4-2.6c0,0,0,0,0,0c6.5,0.7,20.7,0.7,27.2,0l0.5,2.5l1.6,0.4C57,62,57.1,62.9,57,64.1z M52.2,50.2
	c-1.1,0-2-0.9-2-2s0.9-2,2-2c1.1,0,2,0.9,2,2S53.3,50.2,52.2,50.2z M58.6,34.9c-1.1,0-2-0.9-2-2c0-1.1,0.9-2,2-2c1.1,0,2,0.9,2,2
	C60.6,34,59.7,34.9,58.6,34.9z"/>
<path class="st1" d="M24.6,12.7H26c0.4,0,0.8-0.3,0.8-0.8V6.7h1.5v5.3c0,1.5-0.8,2.3-2.2,2.3h-1.5V12.7z"/>
<path class="st1" d="M34,6.6c5.2,0,5.2,7.7,0,7.7C28.9,14.3,28.9,6.6,34,6.6z M34,8.1c-3,0-3,4.6,0,4.6C37,12.8,37,8.1,34,8.1z"/>
<path class="st1" d="M39.8,6.7h1.5c0,1,0,2,0,3l1.9-3h1.8l-2.4,3.7l2.6,3.8h-1.9l-2-2.9c0,1,0,2,0,2.9h-1.5V6.7z"/>
<path class="st1" d="M46.6,14.2V6.7h3.8v1.5h-2.3v1.5h2v1.5h-2v1.5h2.4v1.5H46.6z"/>
<path class="st1" d="M56.1,14.2l-1.5-2.9h-0.7v2.9h-1.5V6.7h3c2.7,0,2.9,3.8,0.7,4.4l1.7,3.1H56.1z M53.8,9.9h1.3c1,0,1-1.7,0-1.7
	h-1.3V9.9z"/>
<path class="st1" d="M57.8,102.1h-1.4c-0.4,0-0.8,0.3-0.8,0.8v5.3h-1.5v-5.3c0-1.5,0.8-2.3,2.2-2.3h1.5V102.1z"/>
<path class="st1" d="M48.3,108.3c-5.2,0-5.2-7.7,0-7.7C53.5,100.5,53.5,108.3,48.3,108.3z M48.3,106.7c3,0,3-4.6,0-4.6
	C45.3,102.1,45.3,106.7,48.3,106.7z"/>
<path class="st1" d="M42.6,108.2h-1.5c0-1,0-2,0-3l-1.9,3h-1.8l2.4-3.7l-2.6-3.8h1.9l2,2.9c0-1,0-2,0-2.9h1.5V108.2z"/>
<path class="st1" d="M35.8,100.6v7.5H32v-1.5h2.3v-1.5h-2v-1.5h2v-1.5h-2.4v-1.5H35.8z"/>
<path class="st1" d="M26.3,100.6l1.5,2.9h0.7v-2.9H30v7.5h-3c-2.7,0-2.9-3.8-0.7-4.4l-1.7-3.1H26.3z M28.5,105h-1.3
	c-1,0-1,1.7,0,1.7h1.3V105z"/>
</svg>
