<?xml version="1.0" encoding="utf-8"?>
<!-- Generator: Adobe Illustrator 24.1.0, SVG Export Plug-In . SVG Version: 6.00 Build 0)  -->
<svg version="1.1" id="Layer_1" xmlns="http://www.w3.org/2000/svg" xmlns:xlink="http://www.w3.org/1999/xlink" x="0px" y="0px"
	 viewBox="0 0 82.4 114.9" style="enable-background:new 0 0 82.4 114.9;" xml:space="preserve">
<style type="text/css">
	.st0{fill:#FFFFFF;}
	.st1{fill:#CD6155;}
	.st2{fill:#902B20;}
</style>
<path class="st0" d="M8.5,0C3.8,0,0,4,0,8.9V106c0,4.9,3.8,8.9,8.5,8.9h65.4c4.7,0,8.5-4,8.5-8.9V8.9C82.4,4,78.6,0,73.9,0H8.5z"/>
<rect x="59.2" y="25.4" class="st1" width="10" height="7"/>
<rect x="59.2" y="45.4" class="st1" width="10" height="7"/>
<rect x="59.2" y="65.4" class="st1" width="10" height="7"/>
<rect x="59.2" y="85.4" class="st1" width="10" height="7"/>
<rect x="59.2" class="st1" width="10" height="12.4"/>
<rect x="59.2" y="105.4" class="st1" width="10" height="9.4"/>
<rect x="36.2" y="65.4" class="st1" width="10" height="7"/>
<rect x="36.2" y="105.4" class="st1" width="10" height="9.4"/>
<rect x="36.2" class="st1" width="10" height="12.4"/>
<rect x="36.2" y="25.4" class="st1" width="10" height="7"/>
<rect x="36.2" y="85.4" class="st1" width="10" height="7"/>
<rect x="36.2" y="45.4" class="st1" width="10" height="7"/>
<rect x="13.2" y="105.4" class="st1" width="10" height="9.4"/>
<rect x="13.2" y="85.4" class="st1" width="10" height="7"/>
<rect x="13.2" y="45.4" class="st1" width="10" height="7"/>
<rect x="13.2" y="25.4" class="st1" width="10" height="7"/>
<rect x="13.2" y="65.4" class="st1" width="10" height="7"/>
<rect x="13.2" class="st1" width="10" height="12.4"/>
<polygon class="st1" points="59.2,15.4 46.2,15.4 46.2,22.4 46.2,25.4 59.2,25.4 59.2,22.4 "/>
<polygon class="st1" points="13.2,15.4 0,15.4 0,25.4 13.2,25.4 13.2,22.4 "/>
<polygon class="st1" points="69.2,15.4 69.2,22.4 69.2,25.4 82.4,25.4 82.4,15.4 "/>
<polygon class="st1" points="36.2,15.4 23.2,15.4 23.2,22.4 23.2,25.4 36.2,25.4 36.2,22.4 "/>
<polygon class="st1" points="36.2,35.4 23.2,35.4 23.2,42.4 23.2,45.4 36.2,45.4 36.2,42.4 "/>
<polygon class="st1" points="13.2,35.4 0,35.4 0,45.4 13.2,45.4 13.2,42.4 "/>
<polygon class="st1" points="69.2,42.4 69.2,45.4 82.4,45.4 82.4,35.4 69.2,35.4 "/>
<polygon class="st1" points="59.2,35.4 46.2,35.4 46.2,42.4 46.2,45.4 59.2,45.4 59.2,42.4 "/>
<polygon class="st1" points="36.2,55.4 23.2,55.4 23.2,62.4 23.2,65.4 36.2,65.4 36.2,62.4 "/>
<polygon class="st1" points="59.2,55.4 46.2,55.4 46.2,62.4 46.2,65.4 59.2,65.4 59.2,62.4 "/>
<polygon class="st1" points="13.2,55.4 0,55.4 0,65.4 13.2,65.4 13.2,62.4 "/>
<polygon class="st1" points="69.2,62.4 69.2,65.4 82.4,65.4 82.4,55.4 69.2,55.4 "/>
<polygon class="st1" points="36.2,75.4 23.2,75.4 23.2,82.4 23.2,85.4 36.2,85.4 36.2,82.4 "/>
<polygon class="st1" points="69.2,82.4 69.2,85.4 82.4,85.4 82.4,75.4 69.2,75.4 "/>
<polygon class="st1" points="59.2,75.4 46.2,75.4 46.2,82.4 46.2,85.4 59.2,85.4 59.2,82.4 "/>
<polygon class="st1" points="13.2,75.4 0,75.4 0,85.4 13.2,85.4 13.2,82.4 "/>
<polygon class="st1" points="59.2,95.4 46.2,95.4 46.2,102.4 46.2,105.4 59.2,105.4 59.2,102.4 "/>
<polygon class="st1" points="36.2,95.4 23.2,95.4 23.2,102.4 23.2,105.4 36.2,105.4 36.2,102.4 "/>
<polygon class="st1" points="13.2,95.4 0,95.4 0,105.4 13.2,105.4 13.2,102.4 "/>
<polygon class="st1" points="69.2,102.4 69.2,105.4 82.4,105.4 82.4,95.4 69.2,95.4 "/>
<polygon class="st2" points="69.2,15.4 59.2,15.4 59.2,22.4 59.2,25.4 69.2,25.4 69.2,22.4 "/>
<polygon class="st2" points="69.2,35.4 59.2,35.4 59.2,42.4 59.2,45.4 69.2,45.4 69.2,42.4 "/>
<polygon class="st2" points="69.2,55.4 59.2,55.4 59.2,62.4 59.2,65.4 69.2,65.4 69.2,62.4 "/>
<polygon class="st2" points="69.2,75.4 59.2,75.4 59.2,82.4 59.2,85.4 69.2,85.4 69.2,82.4 "/>
<polygon class="st2" points="69.2,95.4 59.2,95.4 59.2,102.4 59.2,105.4 69.2,105.4 69.2,102.4 "/>
<polygon class="st2" points="46.2,15.4 36.2,15.4 36.2,22.4 36.2,25.4 46.2,25.4 46.2,22.4 "/>
<polygon class="st2" points="46.2,35.4 36.2,35.4 36.2,42.4 36.2,45.4 46.2,45.4 46.2,42.4 "/>
<polygon class="st2" points="46.2,55.4 36.2,55.4 36.2,62.4 36.2,65.4 46.2,65.4 46.2,62.4 "/>
<polygon class="st2" points="46.2,75.4 36.2,75.4 36.2,82.4 36.2,85.4 46.2,85.4 46.2,82.4 "/>
<polygon class="st2" points="46.2,95.4 36.2,95.4 36.2,102.4 36.2,105.4 46.2,105.4 46.2,102.4 "/>
<polygon class="st2" points="23.2,15.4 13.2,15.4 13.2,22.4 13.2,25.4 23.2,25.4 23.2,22.4 "/>
<polygon class="st2" points="23.2,35.4 13.2,35.4 13.2,42.4 13.2,45.4 23.2,45.4 23.2,42.4 "/>
<polygon class="st2" points="23.2,55.4 13.2,55.4 13.2,62.4 13.2,65.4 23.2,65.4 23.2,62.4 "/>
<polygon class="st2" points="23.2,75.4 13.2,75.4 13.2,82.4 13.2,85.4 23.2,85.4 23.2,82.4 "/>
<polygon class="st2" points="23.2,95.4 13.2,95.4 13.2,102.4 13.2,105.4 23.2,105.4 23.2,102.4 "/>
</svg>
