<?xml version="1.0" encoding="utf-8"?>
<!-- Generator: Adobe Illustrator 24.1.0, SVG Export Plug-In . SVG Version: 6.00 Build 0)  -->
<svg version="1.1" id="Layer_1" xmlns="http://www.w3.org/2000/svg" xmlns:xlink="http://www.w3.org/1999/xlink" x="0px" y="0px"
	 viewBox="0 0 82.4 114.9" style="enable-background:new 0 0 82.4 114.9;" xml:space="preserve">
<style type="text/css">
	.st0{fill:#FFFFFF;}
	.st1{fill:#C0392B;}
	.st2{fill:#2C3E50;}
</style>
<path class="st0" d="M8.5,0C3.8,0,0,4,0,8.9V106c0,4.9,3.8,8.9,8.5,8.9h65.4c4.7,0,8.5-4,8.5-8.9V8.9C82.4,4,78.6,0,73.9,0H8.5z"/>
<polygon class="st1" points="11.6,23.6 11.5,23.6 11.5,23.6 7.8,19.9 11.5,16.2 15.3,19.9 "/>
<polygon class="st1" points="70.9,98.7 70.8,98.7 70.8,98.7 67.1,95 70.8,91.2 74.6,95 "/>
<path class="st2" d="M8.8,6.6h1.5c0,1,0,2,0,3l1.9-3H14l-2.5,3.8l2.7,3.8h-1.9l-2-3c0,1,0,2,0,3H8.8V6.6z"/>
<path class="st2" d="M68,100.6h1.5c0,1,0,2,0,3l2-3h1.9l-2.7,3.8l2.5,3.8h-1.8l-1.9-3c0,1,0,2,0,3H68V100.6z"/>
<path class="st1" d="M34.2,59c0.3-0.5,0.8-0.7,1.3-0.7c0.5,0,1,0.3,1.3,0.7h0.9c0.2-0.4,0.3-0.8,0.3-1.2c0-1.4-1.1-2.3-2.5-2.3
	c-1.4,0-2.5,0.9-2.5,2.3c0,0.4,0.1,0.9,0.3,1.2H34.2z"/>
<path class="st1" d="M45.6,59c0.3-0.5,0.8-0.7,1.3-0.7c0.5,0,1,0.3,1.3,0.7H49c0.2-0.4,0.3-0.8,0.3-1.2c0-1.4-1.1-2.3-2.5-2.3
	c-1.4,0-2.5,0.9-2.5,2.3c0,0.4,0.1,0.9,0.3,1.2H45.6z"/>
<path class="st1" d="M41.2,66.5c1.2,0,2.8-1.4,3-2c0.3-0.8-0.7-0.6-0.9-0.6c-0.5,0.3-1.3,0.9-2.2,0.9c-0.9,0-1.7-0.6-2.2-0.9
	c-0.2,0-1.1-0.3-0.9,0.6C38.3,65.1,40,66.5,41.2,66.5z"/>
<path class="st1" d="M45.5,69.7c0,0-2.6-1.8-4.2-0.9c0,0,0,0-0.1,0c0,0,0,0-0.1,0c-1.6-0.9-4.2,0.9-4.2,0.9c-0.4,0.2-3.5,3-4.5,0.1
	c-0.8,2.5,3.2,4.2,7.1,2.6c0.5,0.3,1.1,0.4,1.7,0.4c0.5,0,1.1-0.2,1.7-0.4c3.9,1.6,7.9-0.1,7.1-2.6C48.9,72.6,45.9,69.9,45.5,69.7z"
	/>
<path class="st1" d="M60.6,51.8c0.1-0.6,0.2-1.2,0.3-1.8c0.4,0,0.8,0,1.2,0c0.4-2.1,0.7-4.2,1.1-6.2c-0.4,0-0.8,0-1.3,0
	c0.4-2.2,0.7-4.5,1.1-6.7c1.5,0,3-1.2,3.3-2.8c0.3-1.5-0.8-2.8-2.4-2.8c-1.6,0-3.1,1.2-3.3,2.8c-0.2,1.1,0.4,2.1,1.3,2.5
	c-2.5,3.7-3.5,5.1-5.1,4.4c-1.2-0.6-1.4-1.4-1.2-7.1c1.6-0.1,3-1.4,3.2-2.9c0.2-1.6-1-2.9-2.8-2.9c-1.7,0-3.3,1.3-3.4,2.9
	c-0.1,1.3,0.7,2.4,1.8,2.7c-1,1.9-1.8,3.3-2.4,4.4c-2.4-1.4-5.2-2.3-8-2.7c-0.5-1-1-2.3-1.7-3.8c1.2-0.5,2-1.5,2-2.8
	c0-1.7-1.4-3.1-3.3-3.1c-1.9,0-3.3,1.4-3.3,3.1c0,1.3,0.9,2.3,2,2.8c-0.7,1.5-1.2,2.8-1.7,3.8c-2.8,0.3-5.6,1.2-8,2.7
	c-0.7-1.1-1.4-2.5-2.4-4.4c1.1-0.4,1.9-1.5,1.8-2.7c-0.1-1.6-1.6-2.9-3.4-2.9c-1.7,0-3,1.3-2.8,2.9c0.2,1.5,1.6,2.8,3.2,2.9
	c0.3,5.7,0,6.5-1.2,7.1c-1.6,0.7-2.5-0.6-5.1-4.4c0.9-0.4,1.5-1.4,1.3-2.5c-0.2-1.5-1.7-2.8-3.3-2.8c-1.6,0-2.7,1.2-2.4,2.8
	c0.3,1.5,1.8,2.8,3.3,2.8c0.4,2.2,0.7,4.5,1.1,6.7c-0.4,0-0.8,0-1.3,0c0.4,2.1,0.7,4.2,1.1,6.2c0.4,0,0.8,0,1.2,0
	c0.1,0.6,0.2,1.2,0.3,1.8c-0.9,1-7,10.1-5.4,12.7c0.8,1.3,2,2.4,3.3,3.1c1.2,0.8,2.1,0.9,3.6,0.6c0.5-0.1,1-0.3,1.4-0.6
	c1.9,8.2,8.8,17.4,11.3,19.1c2.1,1.4,3.6,2.2,5.2,2.2c1.5,0,3.1-0.7,5.2-2.2c2.5-1.7,9.4-11,11.3-19.1c0.5,0.3,1,0.5,1.4,0.6
	c1.5,0.3,2.3,0.1,3.6-0.6c1.2-0.8,2.5-1.8,3.3-3.1C67.5,61.8,61.5,52.8,60.6,51.8z M52.8,70.3c-3.2,5.2-7.2,7-11.6,7
	c-4.3,0-8.3-1.8-11.6-7c-1.9-3.1-3.4-10.6-2-18.5c9.1,0,18.1,0,27.2,0C56.1,59.6,54.7,67.2,52.8,70.3z M53.5,46.9
	c-0.1,1.3-1.2,2.4-2.4,2.4c-1.2,0-2.1-1.1-2-2.4c0.1-1.3,1.2-2.4,2.4-2.4C52.7,44.5,53.6,45.6,53.5,46.9z M43.7,46.9
	c0,1.5-1.2,2.7-2.5,2.7c-1.3,0-2.5-1.2-2.5-2.7c0-1.5,1.1-2.7,2.5-2.7C42.6,44.2,43.7,45.4,43.7,46.9z M31.3,49.2
	c-1.2,0-2.3-1.1-2.4-2.4c-0.1-1.3,0.8-2.4,2-2.4c1.3,0,2.3,1.1,2.4,2.4C33.4,48.2,32.5,49.2,31.3,49.2z M57,46.9
	c0.1-1,1-1.7,1.9-1.7c0.9,0,1.5,0.8,1.4,1.7c-0.2,1-1,1.7-1.9,1.7C57.5,48.6,56.9,47.8,57,46.9z M23.5,45.1c0.9,0,1.7,0.8,1.9,1.7
	c0.1,1-0.5,1.7-1.4,1.7c-0.9,0-1.7-0.8-1.9-1.7C21.9,45.9,22.6,45.1,23.5,45.1z"/>
</svg>
